<?xml version="1.0" encoding="UTF-8"?>
<svg width="98px" height="98px" viewBox="0 0 98 98" version="1.1" xmlns="http://www.w3.org/2000/svg" xmlns:xlink="http://www.w3.org/1999/xlink">
    <title>phone</title>
    <g id="website-design" stroke="none" stroke-width="1" fill="none" fill-rule="evenodd">
        <g id="icons" transform="translate(-939.000000, -79.000000)">
            <g id="phone" transform="translate(940.000000, 80.000000)">
                <rect id="frame" stroke-opacity="0.01" stroke="#979797" stroke-width="0.1" x="0" y="0" width="96" height="96"></rect>
                <path d="M62.5855,76.90625 C65.1688333,76.90625 67.3771667,76.5260417 69.2105,75.765625 C71.0438333,75.0052083 72.7313333,73.7708333 74.273,72.0625 C74.398,71.9375 74.5125833,71.8125 74.61675,71.6875 C74.7209167,71.5625 74.8250833,71.4375 74.92925,71.3125 C75.8250833,70.3333333 76.4865417,69.3489583 76.913625,68.359375 C77.3407083,67.3697917 77.55425,66.4166667 77.55425,65.5 C77.55425,64.4166667 77.24175,63.3697917 76.61675,62.359375 C75.99175,61.3489583 75.0125833,60.3958333 73.67925,59.5 L64.99175,53.4375 C63.6375833,52.5 62.2157083,52.0260417 60.726125,52.015625 C59.2365417,52.0052083 57.8771667,52.6145833 56.648,53.84375 L54.398,56.0625 C54.0438333,56.4375 53.694875,56.640625 53.351125,56.671875 C53.007375,56.703125 52.6375833,56.59375 52.24175,56.34375 C51.7209167,55.9895833 51.0594583,55.484375 50.257375,54.828125 C49.4552917,54.171875 48.6219583,53.453125 47.757375,52.671875 C46.8927917,51.890625 46.1063333,51.1458333 45.398,50.4375 C44.648,49.7083333 43.9240417,48.9635417 43.226125,48.203125 C42.5282083,47.4427083 41.8875833,46.6979167 41.30425,45.96875 C40.7209167,45.2395833 40.24175,44.5625 39.86675,43.9375 C39.5959167,43.5625 39.4813333,43.203125 39.523,42.859375 C39.5646667,42.515625 39.7625833,42.1666667 40.11675,41.8125 L42.3355,39.5625 C43.5855,38.3125 44.2052917,36.9427083 44.194875,35.453125 C44.1844583,33.9635417 43.7000833,32.5520833 42.74175,31.21875 L36.648,22.4375 C35.7521667,21.1458333 34.7990417,20.1927083 33.788625,19.578125 C32.7782083,18.9635417 31.7313333,18.6458333 30.648,18.625 C28.7313333,18.5833333 26.7938333,19.4375 24.8355,21.1875 C24.6896667,21.2916667 24.5594583,21.4010417 24.444875,21.515625 C24.3302917,21.6302083 24.2105,21.7291667 24.0855,21.8125 C22.3771667,23.375 21.1375833,25.078125 20.36675,26.921875 C19.5959167,28.765625 19.2105,31 19.2105,33.625 C19.2105,36.4791667 19.7677917,39.4947917 20.882375,42.671875 C21.9969583,45.8489583 23.6584167,49.0833333 25.86675,52.375 C28.0750833,55.6666667 30.7938333,58.9270833 34.023,62.15625 C37.2521667,65.34375 40.5021667,68.0364583 43.773,70.234375 C47.0438333,72.4322917 50.273,74.09375 53.4605,75.21875 C56.648,76.34375 59.6896667,76.90625 62.5855,76.90625 Z M62.5855,72.1875 C60.0646667,72.2083333 57.3771667,71.65625 54.523,70.53125 C51.6688333,69.40625 48.7938333,67.8333333 45.898,65.8125 C43.0021667,63.7916667 40.2313333,61.4583333 37.5855,58.8125 C34.9396667,56.1875 32.5802917,53.3958333 30.507375,50.4375 C28.4344583,47.4791667 26.8146667,44.546875 25.648,41.640625 C24.4813333,38.734375 23.9188333,36.0208333 23.9605,33.5 C23.9813333,31.8958333 24.2782083,30.4166667 24.851125,29.0625 C25.4240417,27.7083333 26.2834167,26.53125 27.42925,25.53125 C27.5334167,25.4479167 27.632375,25.3645833 27.726125,25.28125 C27.819875,25.1979167 27.9188333,25.1145833 28.023,25.03125 C28.4396667,24.6770833 28.8719583,24.4010417 29.319875,24.203125 C29.7677917,24.0052083 30.2105,23.90625 30.648,23.90625 C31.5646667,23.90625 32.2938333,24.3229167 32.8355,25.15625 L38.49175,33.59375 C38.8250833,34.0729167 38.9813333,34.5729167 38.9605,35.09375 C38.9396667,35.6145833 38.6896667,36.1145833 38.2105,36.59375 L35.7105,39.0625 C34.648,40.125 34.11675,41.2447917 34.11675,42.421875 C34.11675,43.5989583 34.4813333,44.6979167 35.2105,45.71875 C36.023,46.84375 37.0907083,48.15625 38.413625,49.65625 C39.7365417,51.15625 40.99175,52.5 42.17925,53.6875 C43.0125833,54.5 43.92925,55.3697917 44.92925,56.296875 C45.92925,57.2239583 46.9188333,58.1041667 47.898,58.9375 C48.8771667,59.7708333 49.7313333,60.4583333 50.4605,61 C51.4813333,61.7291667 52.5802917,62.09375 53.757375,62.09375 C54.9344583,62.09375 56.05425,61.5520833 57.11675,60.46875 L59.5855,58 C60.0646667,57.5 60.569875,57.2447917 61.101125,57.234375 C61.632375,57.2239583 62.1375833,57.3854167 62.61675,57.71875 L70.99175,63.28125 C71.42925,63.5729167 71.74175,63.90625 71.92925,64.28125 C72.11675,64.65625 72.2105,65.0625 72.2105,65.5 C72.2105,66.3541667 71.8355,67.2291667 71.0855,68.125 C71.0021667,68.2291667 70.9188333,68.328125 70.8355,68.421875 C70.7521667,68.515625 70.6688333,68.6041667 70.5855,68.6875 C69.6063333,69.8333333 68.42925,70.6927083 67.05425,71.265625 C65.67925,71.8385417 64.1896667,72.1458333 62.5855,72.1875 Z" id="􀌾" fill="#FFFFFF" fill-rule="nonzero"></path>
            </g>
        </g>
    </g>
</svg>