<?xml version="1.0" encoding="UTF-8"?>
<svg width="98px" height="98px" viewBox="0 0 98 98" version="1.1" xmlns="http://www.w3.org/2000/svg" xmlns:xlink="http://www.w3.org/1999/xlink">
    <title>􀈂</title>
    <g id="website-design" stroke="none" stroke-width="1" fill="none" fill-rule="evenodd">
        <g id="icons" transform="translate(-251.000000, -79.000000)">
            <g id="􀈂" transform="translate(252.000000, 80.000000)">
                <rect id="frame" stroke-opacity="0.01" stroke="#979797" stroke-width="0.1" x="0" y="0" width="96" height="96"></rect>
                <path d="M31.382375,78.9375 L65.351125,78.9375 C68.5177917,78.9375 70.8927917,78.1510417 72.476125,76.578125 C74.0594583,75.0052083 74.851125,72.6666667 74.851125,69.5625 L74.851125,40.28125 C74.851125,37.1770833 74.0594583,34.8333333 72.476125,33.25 C70.8927917,31.6666667 68.5177917,30.875 65.351125,30.875 L57.257375,30.875 L57.257375,36.1875 L65.163625,36.1875 C66.5594583,36.1875 67.6427917,36.5572917 68.413625,37.296875 C69.1844583,38.0364583 69.569875,39.15625 69.569875,40.65625 L69.569875,69.1875 C69.569875,70.6458333 69.1844583,71.75 68.413625,72.5 C67.6427917,73.25 66.5594583,73.625 65.163625,73.625 L31.601125,73.625 C30.1844583,73.625 29.101125,73.25 28.351125,72.5 C27.601125,71.75 27.226125,70.6458333 27.226125,69.1875 L27.226125,40.65625 C27.226125,39.15625 27.601125,38.0364583 28.351125,37.296875 C29.101125,36.5572917 30.1844583,36.1875 31.601125,36.1875 L39.538625,36.1875 L39.538625,30.875 L31.382375,30.875 C28.257375,30.875 25.8927917,31.6614583 24.288625,33.234375 C22.6844583,34.8072917 21.882375,37.15625 21.882375,40.28125 L21.882375,69.5625 C21.882375,72.6666667 22.6844583,75.0052083 24.288625,76.578125 C25.8927917,78.1510417 28.257375,78.9375 31.382375,78.9375 Z M48.382375,55.5625 C49.069875,55.5625 49.6688333,55.3125 50.17925,54.8125 C50.6896667,54.3125 50.944875,53.7291667 50.944875,53.0625 L50.944875,23 L50.726125,18.625 L52.632375,20.75 L56.944875,25.3125 C57.382375,25.8333333 57.9552917,26.09375 58.663625,26.09375 C59.3094583,26.09375 59.8563333,25.8802083 60.30425,25.453125 C60.7521667,25.0260417 60.976125,24.5 60.976125,23.875 C60.976125,23.25 60.726125,22.6979167 60.226125,22.21875 L50.257375,12.59375 C49.944875,12.28125 49.6375833,12.0572917 49.3355,11.921875 C49.0334167,11.7864583 48.7157083,11.71875 48.382375,11.71875 C48.0490417,11.71875 47.726125,11.7864583 47.413625,11.921875 C47.101125,12.0572917 46.788625,12.28125 46.476125,12.59375 L36.507375,22.21875 C36.0282083,22.6979167 35.788625,23.25 35.788625,23.875 C35.788625,24.5 36.0021667,25.0260417 36.42925,25.453125 C36.8563333,25.8802083 37.4032083,26.09375 38.069875,26.09375 C38.7782083,26.09375 39.3615417,25.8333333 39.819875,25.3125 L44.101125,20.75 L46.007375,18.59375 L45.819875,23 L45.819875,53.0625 C45.819875,53.7291667 46.069875,54.3125 46.569875,54.8125 C47.069875,55.3125 47.6740417,55.5625 48.382375,55.5625 Z" fill="#FFFFFF" fill-rule="nonzero"></path>
            </g>
        </g>
    </g>
</svg>