<?xml version="1.0" encoding="UTF-8"?>
<svg width="465px" height="466px" viewBox="0 0 465 466" version="1.1" xmlns="http://www.w3.org/2000/svg" xmlns:xlink="http://www.w3.org/1999/xlink">
    <title>inner-ring</title>
    <g id="website-design" stroke="none" stroke-width="1" fill="none" fill-rule="evenodd">
        <g id="Artboard" transform="translate(-486.000000, -468.000000)" fill="#2B3595" fill-rule="nonzero">
            <g id="dots" transform="translate(50.512167, 33.011431)">
                <g id="inner-ring" transform="translate(435.803767, 435.078836)">
                    <path d="M31.7393896,120.677844 C31.0472892,116.063841 32.8928904,111.911238 36.1226926,109.834937 C40.0445953,107.527935 44.6585985,107.989336 47.6577005,110.527037 C51.1182029,113.526139 52.0410035,118.140143 50.6568026,121.831345 C48.5805012,125.983948 44.6585985,128.29095 40.7366958,128.060249 C36.3533928,127.368149 32.8928904,124.369047 31.7393896,120.677844 Z" id="P4"></path>
                    <path d="M10.0535748,164.280174 C3.13257004,160.358271 -0.789332644,152.745166 0.133467988,145.824162 C1.51766894,137.980356 7.51587304,131.982152 14.4368778,130.597951 C22.2806832,129.67515 29.8937884,133.597053 33.1235906,139.595257 C36.584093,146.977662 35.4305922,155.052168 30.5858888,160.358271 C24.5876847,165.895075 16.5131792,167.048576 10.0535748,164.280174 Z" id="P1"></path>
                    <path d="M14.2061776,177.199383 C20.6657821,172.58538 28.7402876,172.35468 34.5077915,176.045882 C40.967396,180.659885 43.7357979,188.272991 42.1208968,194.963295 C39.583195,202.3457 33.1235906,207.421104 26.433286,207.882504 C18.3587805,207.882504 11.899176,203.268501 9.13077415,197.039597 C6.82377257,189.426491 9.13077415,181.582686 14.2061776,177.199383 Z" id="P2"></path>
                    <path d="M39.583195,324.155384 C44.8892986,324.155384 49.5033018,327.385186 51.1182029,331.537789 C52.733104,336.613192 51.3489031,341.919296 47.8884007,344.918398 C43.5050977,348.1482 37.9682939,348.3789 34.0463912,345.841199 C29.6630882,342.611396 27.817487,337.535993 28.9709877,332.92199 C30.5858888,327.846586 34.9691919,324.616784 39.583195,324.155384 Z" id="P5"></path>
                    <path d="M61.9611103,99.9148301 C65.6523129,97.1464282 70.266316,97.1464282 73.4961182,99.2227296 C77.1873208,101.760431 78.8022219,106.143734 77.8794212,110.065637 C76.2645201,114.21824 72.8040178,117.217342 68.8821151,117.448042 C64.2681119,117.448042 60.3462092,114.67964 58.9620083,111.219138 C57.5778073,106.835835 58.9620083,102.452532 61.9611103,99.9148301 Z" id="P0"></path>
                    <path d="M40.5059956,151.130265 C44.1971982,148.361863 48.8112013,148.361863 52.0410035,150.438165 C55.7322061,152.975866 57.3471072,157.359169 56.4243065,161.281072 C54.8094054,165.433675 51.3489031,168.432777 47.4270004,168.663477 C42.8129972,168.663477 38.8910945,165.895075 37.5068936,162.434573 C36.1226926,158.05127 37.5068936,153.667967 40.5059956,151.130265 Z" id="P0"></path>
                    <path d="M56.1936064,221.263113 C55.5015059,216.64911 57.3471072,212.496507 60.5769094,210.420206 C64.4988121,208.113204 69.1128152,208.574605 72.1119173,211.112306 C75.5724197,214.111408 76.4952203,218.725411 75.1110194,222.416614 C73.0347179,226.569217 69.1128152,228.876218 65.1909126,228.645518 C60.8076096,227.953418 57.3471072,224.954316 56.1936064,221.263113 Z" id="P4"></path>
                    <path d="M41.6594964,292.318762 C34.7384917,288.396859 30.816589,280.783754 31.7393896,273.862749 C33.1235906,266.018944 39.1217947,260.02074 46.0427994,258.636539 C53.8866048,257.713738 61.49971,261.635641 64.7295122,267.633845 C68.1900146,275.01625 67.0365138,283.090756 62.1918105,288.396859 C56.1936064,293.933663 48.1191009,295.087164 41.6594964,292.318762 Z" id="P1"></path>
                    <path d="M73.9575186,304.08447 C79.2636222,304.08447 83.8776254,307.314272 85.4925265,311.466875 C87.1074276,316.542278 85.7232266,321.848382 82.2627242,324.847484 C77.8794212,328.077286 72.3426175,328.307987 68.4207148,325.770285 C64.0374118,322.540483 62.1918105,317.465079 63.3453113,312.851076 C64.9602124,307.775672 69.3435154,304.54587 73.9575186,304.08447 Z" id="P5"></path>
                    <path d="M36.3533928,352.300803 C38.6603944,347.4561 43.2743975,344.687698 47.8884007,344.918398 C53.1945043,345.610498 57.3471072,349.301701 58.500608,353.685004 C59.6541088,358.991108 57.3471072,364.066511 53.4252045,366.604213 C48.8112013,369.141914 43.2743975,368.680514 39.583195,365.681412 C35.8919925,361.99021 34.5077915,356.684106 36.3533928,352.300803 Z" id="P3"></path>
                    <path d="M79.9557227,432.815158 C73.0347179,428.893255 69.1128152,421.28015 70.0356159,414.359145 C71.4198168,406.51534 77.4180209,400.517136 84.3390257,399.132935 C92.182831,398.210134 99.7959363,402.132037 103.025738,408.130241 C106.486241,415.512646 105.33274,423.587152 100.488037,428.893255 C94.4898326,434.430059 86.4153271,435.58356 79.9557227,432.815158 Z" id="P1"></path>
                    <path d="M103.025738,50.7756964 C105.33274,45.9309931 109.946743,43.1625912 114.560746,43.3932913 C119.86685,44.0853918 124.019453,47.7765943 125.172954,52.1598973 C126.326454,57.466001 124.019453,62.5414045 120.09755,65.0791062 C115.483547,67.6168079 109.946743,67.1554076 106.255541,64.1563056 C102.564338,60.465103 101.180137,55.1589994 103.025738,50.7756964 Z" id="P3"></path>
                    <path d="M125.865054,127.829549 C118.944049,123.907647 115.022147,116.294541 115.944947,109.373537 C117.329148,101.529731 123.327352,95.5315271 130.248357,94.1473261 C138.092162,93.2245255 145.705268,97.1464282 148.93507,103.144632 C152.395572,110.527037 151.242072,118.601543 146.397368,123.907647 C140.399164,129.44445 132.324659,130.597951 125.865054,127.829549 Z" id="P1"></path>
                    <path d="M86.1846269,161.050372 C89.8758295,158.28197 94.4898326,158.28197 97.7196348,160.358271 C101.410837,162.895973 103.025738,167.279276 102.102938,171.201179 C100.488037,175.353782 97.0275344,178.352884 93.1056317,178.583584 C88.4916285,178.583584 84.5697258,175.815182 83.1855249,172.35468 C81.8013239,167.971377 83.1855249,163.588074 86.1846269,161.050372 Z" id="P0"></path>
                    <path d="M77.8794212,186.88879 C80.1864228,182.044086 84.800426,179.275684 89.4144291,179.506385 C94.7205328,180.198485 98.8731356,183.889688 100.026636,188.272991 C101.180137,193.579094 98.8731356,198.654498 94.9512329,201.192199 C90.3372298,203.729901 84.800426,203.268501 81.1092235,200.269399 C77.4180209,196.578196 76.03382,191.272093 77.8794212,186.88879 Z" id="P3"></path>
                    <path d="M124.942253,261.866341 C130.248357,261.866341 134.86236,265.096143 136.477261,269.248746 C138.092162,274.32415 136.707962,279.630253 133.247459,282.629355 C128.864156,285.859157 123.327352,286.089858 119.40545,283.552156 C115.022147,280.322354 113.176545,275.24695 114.330046,270.632947 C115.944947,265.557544 120.32825,262.327741 124.942253,261.866341 Z" id="P5"></path>
                    <path d="M84.5697258,310.544074 C88.2609284,307.775672 92.8749315,307.775672 96.1047337,309.851974 C99.7959363,312.389676 101.410837,316.772979 100.488037,320.694881 C98.8731356,324.847484 95.4126333,327.846586 91.4907306,328.077286 C86.8767274,328.077286 82.9548247,325.308884 81.5706238,321.848382 C80.1864228,317.465079 81.5706238,313.081776 84.5697258,310.544074 Z" id="P0"></path>
                    <path d="M109.946743,374.217318 C113.637946,371.448916 118.251949,371.448916 121.481751,373.525217 C125.172954,376.062919 126.787855,380.446222 125.865054,384.368125 C124.250153,388.520728 120.789651,391.51983 116.867748,391.75053 C112.253745,391.75053 108.331842,388.982128 106.947641,385.521626 C105.56344,381.138323 106.947641,376.75502 109.946743,374.217318 Z" id="P0"></path>
                    <path d="M91.7214307,388.982128 C98.1810352,384.368125 106.255541,384.137425 112.023045,387.828627 C118.482649,392.44263 121.251051,400.055736 119.63615,406.74604 C117.098448,414.128445 110.638844,419.203849 103.948539,419.665249 C95.8740336,419.665249 89.4144291,415.051246 86.6460273,408.822342 C84.3390257,401.209236 86.6460273,393.365431 91.7214307,388.982128 Z" id="P2"></path>
                    <path d="M142.706166,436.04496 C146.397368,433.276558 151.011371,433.276558 154.241174,435.35286 C157.932376,437.890562 159.547277,442.273865 158.624477,446.195767 C157.009575,450.34837 153.549073,453.347472 149.62717,453.578172 C145.013167,453.578172 141.091265,450.80977 139.707064,447.349268 C138.322863,442.965965 139.707064,438.582662 142.706166,436.04496 Z" id="P0"></path>
                    <path d="M189.076897,35.7801861 C182.155893,31.8582834 178.23399,24.2451782 179.156791,17.3241735 C180.540992,9.48036811 186.539196,3.482164 193.4602,2.09796306 C201.304006,1.17516242 208.917111,5.09706511 212.146913,11.0952692 C215.607416,18.4776743 214.453915,26.5521798 209.609211,31.8582834 C203.611007,37.3950872 195.536502,38.548588 189.076897,35.7801861 Z" id="P1"></path>
                    <path d="M148.012269,48.9300951 C151.703472,46.1616932 156.317475,46.1616932 159.547277,48.2379947 C163.23848,50.7756964 164.853381,55.1589994 163.93058,59.0809021 C162.315679,63.2335049 158.855177,66.232607 154.933274,66.4633071 C150.319271,66.4633071 146.397368,63.6949053 145.013167,60.2344029 C143.628966,55.8510999 145.013167,51.4677969 148.012269,48.9300951 Z" id="P0"></path>
                    <path d="M173.158587,133.597053 C172.466486,128.98305 174.312087,124.830447 177.54189,122.754146 C181.463792,120.447144 186.077795,120.908544 189.076897,123.446246 C192.5374,126.445348 193.4602,131.059351 192.075999,134.750554 C189.999698,138.903157 186.077795,141.210158 182.155893,140.979458 C177.77259,140.287358 174.312087,137.288256 173.158587,133.597053 Z" id="P4"></path>
                    <path d="M121.712451,108.912136 C128.172056,104.298133 136.246561,104.067433 142.014065,107.758635 C148.47367,112.372639 151.242072,119.985744 149.62717,126.676048 C147.089469,134.058453 140.629864,139.133857 133.93956,139.595257 C125.865054,139.595257 119.40545,134.981254 116.637048,128.75235 C114.330046,121.139245 116.637048,113.295439 121.712451,108.912136 Z" id="P2"></path>
                    <path d="M137.169362,232.336721 C130.248357,228.414818 126.326454,220.801713 127.249255,213.880708 C128.633456,206.036903 134.63166,200.038699 141.552665,198.654498 C149.39647,197.731697 157.009575,201.6536 160.239378,207.651804 C163.69988,215.034209 162.546379,223.108714 157.701676,228.414818 C151.703472,233.951622 143.628966,235.105123 137.169362,232.336721 Z" id="P1"></path>
                    <path d="M179.618191,264.634743 C186.077795,260.02074 194.152301,259.79004 199.919805,263.481242 C206.379409,268.095245 209.147811,275.70835 207.53291,282.398655 C204.995208,289.78106 198.535604,294.856464 191.845299,295.317864 C183.770794,295.317864 177.311189,290.703861 174.542787,284.474956 C172.235786,276.861851 174.542787,269.018046 179.618191,264.634743 Z" id="P2"></path>
                    <path d="M127.018555,356.453406 C126.326454,351.839403 128.172056,347.6868 131.401858,345.610498 C135.323761,343.303497 139.937764,343.764897 142.936866,346.302599 C146.397368,349.301701 147.320169,353.915704 145.935968,357.606907 C143.859666,361.759509 139.937764,364.066511 136.015861,363.835811 C131.632558,363.14371 128.172056,360.144608 127.018555,356.453406 Z" id="P4"></path>
                    <path d="M173.619987,377.21642 C177.311189,374.448018 181.925193,374.448018 185.154995,376.52432 C188.846197,379.062021 190.461098,383.445324 189.538298,387.367227 C187.923397,391.51983 184.462894,394.518932 180.540992,394.749632 C175.926988,394.749632 172.005086,391.98123 170.620885,388.520728 C169.236684,384.137425 170.620885,379.754122 173.619987,377.21642 Z" id="P0"></path>
                    <path d="M166.698982,430.969557 C170.390185,428.201155 175.004188,428.201155 178.23399,430.277456 C181.925193,432.815158 183.540094,437.198461 182.617293,441.120364 C181.002392,445.272967 177.54189,448.272069 173.619987,448.502769 C169.005984,448.502769 165.084081,445.734367 163.69988,442.273865 C162.315679,437.890562 163.69988,433.507259 166.698982,430.969557 Z" id="P0"></path>
                    <path d="M166.237582,442.043164 C171.543685,442.043164 176.157689,445.272967 177.77259,449.425569 C179.387491,454.500973 178.00329,459.807077 174.542787,462.806179 C170.159484,466.035981 164.622681,466.266681 160.700778,463.728979 C156.317475,460.499177 154.471874,455.423774 155.625375,450.80977 C157.240276,445.734367 161.623579,442.504565 166.237582,442.043164 Z" id="P5"></path>
                    <path d="M210.762712,3.71286416 C217.222317,-0.901138999 225.296822,-1.13183916 231.064326,2.55936337 C237.523931,7.17336653 240.292333,14.7864717 238.677431,21.4767763 C236.13973,28.8591814 229.680125,33.9345849 222.989821,34.3959852 C214.915315,34.3959852 208.455711,29.781982 205.687309,23.5530778 C203.380307,15.9399725 205.687309,8.09616716 210.762712,3.71286416 Z" id="P2"></path>
                    <path d="M206.610109,64.848406 C205.918009,60.2344029 207.76361,56.0818 210.993412,54.0054986 C214.915315,51.698497 219.529318,52.1598973 222.52842,54.6975991 C225.988923,57.6967011 226.911723,62.3107043 225.527522,66.0019068 C223.451221,70.1545097 219.529318,72.4615113 215.607416,72.2308111 C211.224113,71.5387106 207.76361,68.5396086 206.610109,64.848406 Z" id="P4"></path>
                    <path d="M204.764508,109.604237 C211.224113,104.990234 219.298618,104.759533 225.066122,108.450736 C231.525727,113.064739 234.294128,120.677844 232.679227,127.368149 C230.141526,134.750554 223.681921,139.825957 216.991617,140.287358 C208.917111,140.287358 202.457507,135.673355 199.689105,129.44445 C197.382103,121.831345 199.689105,113.98754 204.764508,109.604237 Z" id="P2"></path>
                    <path d="M240.523033,139.364557 C239.830932,134.750554 241.676533,130.597951 244.906336,128.52165 C248.828238,126.214648 253.442242,126.676048 256.441344,129.21375 C259.901846,132.212852 260.824647,136.826855 259.440446,140.518058 C257.364144,144.670661 253.442242,146.977662 249.520339,146.746962 C245.137036,146.054862 241.676533,143.05576 240.523033,139.364557 Z" id="P4"></path>
                    <path d="M221.83632,228.184118 C227.142423,228.184118 231.756427,231.41392 233.371328,235.566523 C234.986229,240.641926 233.602028,245.94803 230.141526,248.947132 C225.758223,252.176934 220.221419,252.407635 216.299516,249.869933 C211.916213,246.640131 210.070612,241.564727 211.224113,236.950724 C212.839014,231.87532 217.222317,228.645518 221.83632,228.184118 Z" id="P5"></path>
                    <path d="M222.52842,290.24246 C221.83632,285.628457 223.681921,281.475854 226.911723,279.399553 C230.833626,277.092551 235.447629,277.553952 238.446731,280.091653 C241.907234,283.090756 242.830034,287.704759 241.445833,291.395961 C239.369532,295.548564 235.447629,297.855566 231.525727,297.624866 C227.142423,296.932765 223.681921,293.933663 222.52842,290.24246 Z" id="P4"></path>
                    <path d="M243.060734,333.84479 C242.368634,329.230787 244.214235,325.078184 247.444037,323.001883 C251.36594,320.694881 255.979943,321.156282 258.979045,323.693983 C262.439548,326.693085 263.362348,331.307089 261.978147,334.998291 C259.901846,339.150894 255.979943,341.457896 252.058041,341.227195 C247.674738,340.535095 244.214235,337.535993 243.060734,333.84479 Z" id="P4"></path>
                    <path d="M202.688207,408.360941 C195.767202,404.439039 191.845299,396.825933 192.7681,389.904929 C194.152301,382.061123 200.150505,376.062919 207.07151,374.678718 C214.915315,373.755918 222.52842,377.67782 225.758223,383.676024 C229.218725,391.05843 228.065224,399.132935 223.220521,404.439039 C217.222317,409.975842 209.147811,411.129343 202.688207,408.360941 Z" id="P1"></path>
                    <path d="M217.683717,427.509054 C216.991617,422.895051 218.837218,418.742448 222.06702,416.666147 C225.988923,414.359145 230.602926,414.820546 233.602028,417.358248 C237.06253,420.35735 237.985331,424.971353 236.60113,428.662555 C234.524829,432.815158 230.602926,435.12216 226.681023,434.89146 C222.29772,434.199359 218.837218,431.200257 217.683717,427.509054 Z" id="P4"></path>
                    <path d="M287.816565,11.0952692 C291.507768,8.32686732 296.121771,8.32686732 299.351573,10.4031687 C303.042775,12.9408705 304.657677,17.3241735 303.734876,21.2460762 C302.119975,25.398679 298.659472,28.3977811 294.73757,28.6284812 C290.123567,28.6284812 286.201664,25.8600793 284.817463,22.399577 C283.433262,18.016274 284.817463,13.632971 287.816565,11.0952692 Z" id="P0"></path>
                    <path d="M297.505972,41.3169899 C301.197174,38.548588 305.811177,38.548588 309.04098,40.6248894 C312.732182,43.1625912 314.347083,47.5458942 313.424283,51.4677969 C311.809381,55.6203997 308.348879,58.6195018 304.426976,58.8502019 C299.812973,58.8502019 295.891071,56.0818 294.50687,52.6212977 C293.122669,48.2379947 294.50687,43.8546917 297.505972,41.3169899 Z" id="P0"></path>
                    <path d="M296.352471,98.9920294 C300.043673,96.2236275 304.657677,96.2236275 307.887479,98.299929 C311.578681,100.837631 313.193582,105.220934 312.270782,109.142836 C310.655881,113.295439 307.195378,116.294541 303.273476,116.525241 C298.659472,116.525241 294.73757,113.75684 293.353369,110.296337 C291.969168,105.913034 293.353369,101.529731 296.352471,98.9920294 Z" id="P0"></path>
                    <path d="M284.356063,151.360965 C288.047265,148.592563 292.661268,148.592563 295.891071,150.668865 C299.582273,153.206567 301.197174,157.58987 300.274374,161.511772 C298.659472,165.664375 295.19897,168.663477 291.277067,168.894177 C286.663064,168.894177 282.741162,166.125775 281.356961,162.665273 C279.97276,158.28197 281.356961,153.898667 284.356063,151.360965 Z" id="P0"></path>
                    <path d="M270.514053,230.72182 C269.821953,226.107817 271.667554,221.955214 274.897356,219.878912 C278.819259,217.571911 283.433262,218.033311 286.432364,220.571013 C289.892866,223.570115 290.815667,228.184118 289.431466,231.87532 C287.355165,236.027923 283.433262,238.334925 279.511359,238.104225 C275.128056,237.412124 271.667554,234.413022 270.514053,230.72182 Z" id="P4"></path>
                    <path d="M282.049061,265.788244 C281.356961,261.174241 283.202562,257.021638 286.432364,254.945336 C290.354267,252.638335 294.96827,253.099735 297.967372,255.637437 C301.427874,258.636539 302.350675,263.250542 300.966474,266.941744 C298.890173,271.094347 294.96827,273.401349 291.046367,273.170649 C286.663064,272.478548 283.202562,269.479446 282.049061,265.788244 Z" id="P4"></path>
                    <path d="M285.278863,309.390574 C291.738468,304.77657 299.812973,304.54587 305.580477,308.237073 C312.040082,312.851076 314.808484,320.464181 313.193582,327.154486 C310.655881,334.536891 304.196276,339.612294 297.505972,340.073695 C289.431466,340.073695 282.971862,335.459691 280.20346,329.230787 C277.896458,321.617682 280.20346,313.773877 285.278863,309.390574 Z" id="P2"></path>
                    <path d="M306.964678,372.833117 C312.270782,372.833117 316.884785,376.062919 318.499686,380.215522 C320.114587,385.290926 318.730386,390.597029 315.269884,393.596131 C310.886581,396.825933 305.349777,397.056634 301.427874,394.518932 C297.044571,391.28913 295.19897,386.213726 296.352471,381.599723 C297.967372,376.52432 302.350675,373.294517 306.964678,372.833117 Z" id="P5"></path>
                    <path d="M273.743855,422.433651 C277.435058,419.665249 282.049061,419.665249 285.278863,421.741551 C288.970066,424.279252 290.584967,428.662555 289.662166,432.584458 C288.047265,436.737061 284.586763,439.736163 280.66486,439.966863 C276.050857,439.966863 272.128954,437.198461 270.744753,433.737959 C269.360552,429.354656 270.744753,424.971353 273.743855,422.433651 Z" id="P0"></path>
                    <path d="M280.66486,444.350166 C282.971862,439.505463 287.585865,436.737061 292.199868,436.967761 C297.505972,437.659861 301.658575,441.351064 302.812075,445.734367 C303.965576,451.040471 301.658575,456.115874 297.736672,458.653576 C293.122669,461.191278 287.585865,460.729877 283.894662,457.730775 C280.20346,454.039573 278.819259,448.733469 280.66486,444.350166 Z" id="P3"></path>
                    <path d="M310.425181,18.016274 C316.884785,13.4022708 324.959291,13.1715706 330.726794,16.8627732 C337.186399,21.4767763 339.954801,29.0898815 338.3399,35.7801861 C335.802198,43.1625912 329.342594,48.2379947 322.652289,48.699395 C314.577783,48.699395 308.118179,44.0853918 305.349777,37.8564876 C303.042775,30.2433823 305.349777,22.399577 310.425181,18.016274 Z" id="P2"></path>
                    <path d="M353.79681,56.3125002 C359.102914,56.3125002 363.716917,59.5423024 365.331818,63.6949053 C366.946719,68.7703087 365.562518,74.0764124 362.102016,77.0755144 C357.718713,80.3053166 352.181909,80.5360168 348.260006,77.9983151 C343.876703,74.7685128 342.031102,69.6931094 343.184603,65.0791062 C344.799504,60.0037027 349.182807,56.7739005 353.79681,56.3125002 Z" id="P5"></path>
                    <path d="M316.423385,102.683232 C322.882989,98.0692288 330.957495,97.8385286 336.724999,101.529731 C343.184603,106.143734 345.953005,113.75684 344.338104,120.447144 C341.800402,127.829549 335.340798,132.904953 328.650493,133.366353 C320.575988,133.366353 314.116383,128.75235 311.347981,122.523446 C309.04098,114.91034 311.347981,107.066535 316.423385,102.683232 Z" id="P2"></path>
                    <path d="M320.345287,179.506385 C322.652289,174.661681 327.266292,171.893279 331.880295,172.12398 C337.186399,172.81608 341.339002,176.507283 342.492503,180.890586 C343.646003,186.196689 341.339002,191.272093 337.417099,193.809794 C332.803096,196.347496 327.266292,195.886096 323.57509,192.886994 C319.883887,189.195791 318.499686,183.889688 320.345287,179.506385 Z" id="P3"></path>
                    <path d="M372.944923,250.331333 C366.023919,246.40943 362.102016,238.796325 363.024817,231.87532 C364.409018,224.031515 370.407222,218.033311 377.328226,216.64911 C385.172032,215.726309 392.785137,219.648212 396.014939,225.646416 C399.475442,233.028821 398.321941,241.103327 393.477237,246.40943 C387.479033,251.946234 379.404528,253.099735 372.944923,250.331333 Z" id="P1"></path>
                    <path d="M379.635228,266.941744 C384.941332,266.941744 389.555335,270.171547 391.170236,274.32415 C392.785137,279.399553 391.400936,284.705657 387.940434,287.704759 C383.557131,290.934561 378.020327,291.165261 374.098424,288.627559 C369.715121,285.397757 367.86952,280.322354 369.023021,275.70835 C370.637922,270.632947 375.021225,267.403145 379.635228,266.941744 Z" id="P5"></path>
                    <path d="M344.568804,306.622172 C351.028408,302.008169 359.102914,301.777468 364.870418,305.468671 C371.330022,310.082674 374.098424,317.695779 372.483523,324.386084 C369.945821,331.768489 363.486217,336.843892 356.795912,337.305293 C348.721407,337.305293 342.261802,332.69129 339.4934,326.462385 C337.186399,318.84928 339.4934,311.005475 344.568804,306.622172 Z" id="P2"></path>
                    <path d="M348.721407,356.684106 C351.028408,351.839403 355.642412,349.071001 360.256415,349.301701 C365.562518,349.993801 369.715121,353.685004 370.868622,358.068307 C372.022123,363.374411 369.715121,368.449814 365.793218,370.987516 C361.179215,373.525217 355.642412,373.063817 351.951209,370.064715 C348.260006,366.373513 346.875806,361.067409 348.721407,356.684106 Z" id="P3"></path>
                    <path d="M336.724999,416.896847 C342.031102,416.896847 346.645105,420.126649 348.260006,424.279252 C349.874908,429.354656 348.490707,434.660759 345.030204,437.659861 C340.646901,440.889664 335.110097,441.120364 331.188195,438.582662 C326.804892,435.35286 324.959291,430.277456 326.112791,425.663453 C327.727692,420.58805 332.110995,417.358248 336.724999,416.896847 Z" id="P5"></path>
                    <path d="M309.50238,436.506361 C311.809381,431.661657 316.423385,428.893255 321.037388,429.123956 C326.343491,429.816056 330.496094,433.507259 331.649595,437.890562 C332.803096,443.196665 330.496094,448.272069 326.574192,450.80977 C321.960188,453.347472 316.423385,452.886072 312.732182,449.88697 C309.04098,446.195767 307.656779,440.889664 309.50238,436.506361 Z" id="P3"></path>
                    <path d="M384.018531,100.837631 C387.709733,98.0692288 392.323737,98.0692288 395.553539,100.14553 C399.244741,102.683232 400.859643,107.066535 399.936842,110.988438 C398.321941,115.14104 394.861438,118.140143 390.939536,118.370843 C386.325533,118.370843 382.40363,115.602441 381.019429,112.141938 C379.635228,107.758635 381.019429,103.375332 384.018531,100.837631 Z" id="P0"></path>
                    <path d="M385.633432,134.519854 C392.093036,129.905851 400.167542,129.67515 405.935046,133.366353 C412.39465,137.980356 415.163052,145.593461 413.548151,152.283766 C411.010449,159.666171 404.550845,164.741574 397.86054,165.202975 C389.786035,165.202975 383.32643,160.588972 380.558029,154.360067 C378.251027,146.746962 380.558029,138.903157 385.633432,134.519854 Z" id="P2"></path>
                    <path d="M388.171134,211.804407 C387.479033,207.190404 389.324635,203.037801 392.554437,200.961499 C396.476339,198.654498 401.090343,199.115898 404.089445,201.6536 C407.549947,204.652702 408.472748,209.266705 407.088547,212.957908 C405.012245,217.11051 401.090343,219.417512 397.16844,219.186812 C392.785137,218.494711 389.324635,215.495609 388.171134,211.804407 Z" id="P4"></path>
                    <path d="M417.700754,246.870831 C417.008654,242.256828 418.854255,238.104225 422.084057,236.027923 C426.00596,233.720922 430.619963,234.182322 433.619065,236.720024 C437.079567,239.719126 438.002368,244.333129 436.618167,248.024332 C434.541866,252.176934 430.619963,254.483936 426.69806,254.253236 C422.314757,253.561135 418.854255,250.562033 417.700754,246.870831 Z" id="P4"></path>
                    <path d="M385.864132,323.232583 C391.170236,323.232583 395.784239,326.462385 397.39914,330.614988 C399.014041,335.690392 397.62984,340.996495 394.169338,343.995597 C389.786035,347.225399 384.249231,347.4561 380.327328,344.918398 C375.944025,341.688596 374.098424,336.613192 375.251925,331.999189 C376.866826,326.923786 381.250129,323.693983 385.864132,323.232583 Z" id="P5"></path>
                    <path d="M399.475442,347.4561 C405.935046,342.842096 414.009552,342.611396 419.777055,346.302599 C426.23666,350.916602 429.005062,358.529707 427.390161,365.220012 C424.852459,372.602417 418.392855,377.67782 411.70255,378.139221 C403.628044,378.139221 397.16844,373.525217 394.400038,367.296313 C392.093036,359.683208 394.400038,351.839403 399.475442,347.4561 Z" id="P2"></path>
                    <path d="M435.926067,160.358271 C442.385671,155.744268 450.460176,155.513568 456.22768,159.204771 C462.687285,163.818774 465.455687,171.431879 463.840786,178.122184 C461.303084,185.504589 454.843479,190.579992 448.153175,191.041392 C440.078669,191.041392 433.619065,186.427389 430.850663,180.198485 C428.543661,172.58538 430.850663,164.741574 435.926067,160.358271 Z" id="P2"></path>
                    <path d="M432.696264,215.495609 C439.155869,210.881606 447.230374,210.650906 452.997878,214.342108 C459.457483,218.956112 462.225885,226.569217 460.610983,233.259521 C458.073282,240.641926 451.613677,245.71733 444.923373,246.17873 C436.848867,246.17873 430.389263,241.564727 427.620861,235.335823 C425.313859,227.722718 427.620861,219.878912 432.696264,215.495609 Z" id="P2"></path>
                    <path d="M431.081363,273.862749 C430.389263,269.248746 432.234864,265.096143 435.464666,263.019842 C439.386569,260.71284 444.000572,261.174241 446.999674,263.711942 C450.460176,266.711044 451.382977,271.325047 449.998776,275.01625 C447.922475,279.168853 444.000572,281.475854 440.078669,281.245154 C435.695366,280.553054 432.234864,277.553952 431.081363,273.862749 Z" id="P4"></path>
                    <path d="M434.541866,299.009066 C439.847969,299.009066 444.461972,302.238869 446.076873,306.391472 C447.691775,311.466875 446.307574,316.772979 442.847071,319.772081 C438.463768,323.001883 432.926964,323.232583 429.005062,320.694881 C424.621759,317.465079 422.776158,312.389676 423.929658,307.775672 C425.544559,302.700269 429.927862,299.470467 434.541866,299.009066 Z" id="P5"></path>
                    <path d="M417.700754,343.764897 C421.391957,340.996495 426.00596,340.996495 429.235762,343.072797 C432.926964,345.610498 434.541866,349.993801 433.619065,353.915704 C432.004164,358.068307 428.543661,361.067409 424.621759,361.298109 C420.007756,361.298109 416.085853,358.529707 414.701652,355.069205 C413.317451,350.685902 414.701652,346.302599 417.700754,343.764897 Z" id="P0"></path>
                </g>
            </g>
        </g>
    </g>
</svg>