<?xml version="1.0" encoding="UTF-8"?>
<svg width="831px" height="846px" viewBox="0 0 831 846" version="1.1" xmlns="http://www.w3.org/2000/svg" xmlns:xlink="http://www.w3.org/1999/xlink">
    <title>mid-ring</title>
    <g id="website-design" stroke="none" stroke-width="1" fill="none" fill-rule="evenodd">
        <g id="Artboard" transform="translate(-298.000000, -285.000000)" fill="#2B3595" fill-rule="nonzero">
            <g id="dots" transform="translate(183.512167, 167.011431)">
                <g id="mid-ring" transform="translate(115.000000, 118.000000)">
                    <path d="M0.130104446,397.326606 C-0.492460872,393.172768 1.16771331,389.434314 4.07301813,387.565087 C7.60088827,385.488169 11.7513237,385.903552 14.4491068,388.188163 C17.5619334,390.888158 18.3920204,395.041995 17.1468898,398.365065 C15.2791939,402.103519 11.7513237,404.180438 8.22345358,403.972746 C4.2805399,403.349671 1.16771331,400.649676 0.130104446,397.326606 Z" id="P4"></path>
                    <path d="M10.9212366,500.964857 C15.6942374,500.964857 19.8446729,503.872543 21.2973253,507.610997 C22.7499777,512.180219 21.504847,516.957132 18.3920204,519.657126 C14.4491068,522.564813 9.46858422,522.772505 5.94071408,520.487894 C1.9978004,517.580208 0.337626219,513.010986 1.37523508,508.857148 C2.82788749,504.287927 6.77080117,501.38024 10.9212366,500.964857 Z" id="P5"></path>
                    <path d="M41.0118937,251.526903 C34.7862405,247.996141 31.2583704,241.142308 32.0884575,234.911552 C33.3335881,227.850028 38.7291542,222.450039 44.9548074,221.203888 C52.0105476,220.37312 58.8587661,223.903882 61.764071,229.303871 C64.8768975,235.950011 63.8392887,243.219227 59.4813315,247.996141 C54.0857654,252.980746 46.8225033,254.019205 41.0118937,251.526903 Z" id="P1"></path>
                    <path d="M44.7472856,275.41147 C48.067634,272.919167 52.2180694,272.919167 55.1233742,274.788394 C58.4437226,277.073005 59.896375,281.01915 59.0662879,284.549912 C57.6136355,288.288366 54.5008089,290.988361 50.9729388,291.196053 C46.8225033,291.196053 43.2946332,288.70375 42.0495025,285.588372 C40.8043719,281.642226 42.0495025,277.69608 44.7472856,275.41147 Z" id="P0"></path>
                    <path d="M15.9017592,334.395965 C9.67610599,330.865203 6.14823586,324.011371 6.97832295,317.780614 C8.22345358,310.71909 13.6190197,305.319101 19.8446729,304.07295 C26.9004131,303.242182 33.7486316,306.772944 36.6539365,312.172933 C39.766763,318.819074 38.7291542,326.088289 34.371197,330.865203 C28.9756309,335.849808 21.7123688,336.888268 15.9017592,334.395965 Z" id="P1"></path>
                    <path d="M18.5995422,342.080565 C17.9769769,337.926727 19.6371511,334.188273 22.5424559,332.319046 C26.070326,330.242127 30.2207615,330.657511 32.9185445,332.942122 C36.0313711,335.642116 36.8614582,339.795954 35.6163276,343.119024 C33.7486316,346.857478 30.2207615,348.934397 26.6928914,348.726705 C22.7499777,348.103629 19.6371511,345.403635 18.5995422,342.080565 Z" id="P4"></path>
                    <path d="M8.01593181,415.603492 C7.39336649,411.449654 9.05354067,407.7112 11.9588455,405.841973 C15.4867156,403.765054 19.6371511,404.180438 22.3349341,406.465049 C25.4477607,409.165044 26.2778478,413.318881 25.0327172,416.641951 C23.1650212,420.380405 19.6371511,422.457324 16.1092809,422.249632 C12.1663673,421.626557 9.05354067,418.926562 8.01593181,415.603492 Z" id="P4"></path>
                    <path d="M24.8251954,442.395745 C28.1455438,439.903442 32.2959792,439.903442 35.201284,441.772669 C38.5216324,444.05728 39.9742848,448.003426 39.1441977,451.534188 C37.6915453,455.272642 34.5787187,457.972636 31.0508486,458.180328 C26.9004131,458.180328 23.372543,455.688026 22.1274124,452.572647 C20.8822817,448.626502 22.1274124,444.680356 24.8251954,442.395745 Z" id="P0"></path>
                    <path d="M29.805718,499.718705 C35.6163276,495.564868 42.8795896,495.357176 48.067634,498.680246 C53.8782436,502.834084 56.3685049,509.687916 54.9158525,515.710981 C52.633113,522.357121 46.8225033,526.926342 40.8043719,527.341726 C33.5411099,527.341726 27.7305002,523.187888 25.2402389,517.580208 C23.1650212,510.726375 25.2402389,503.664851 29.805718,499.718705 Z" id="P2"></path>
                    <path d="M35.6163276,537.518628 C29.3906744,533.987866 25.8628043,527.134034 26.6928914,520.903278 C27.938022,513.841754 33.3335881,508.441765 39.5592413,507.195613 C46.6149815,506.364846 53.4632,509.895608 56.3685049,515.295597 C59.4813315,521.941737 58.4437226,529.210953 54.0857654,533.987866 C48.6901993,538.972472 41.4269372,540.010931 35.6163276,537.518628 Z" id="P1"></path>
                    <path d="M47.8601122,610.833864 C41.634459,607.303102 38.1065889,600.44927 38.936676,594.218513 C40.1818066,587.156989 45.5773727,581.757 51.8030259,580.510849 C58.8587661,579.680081 65.7069846,583.210843 68.6122895,588.610832 C71.725116,595.256973 70.6875072,602.526189 66.32955,607.303102 C60.9339839,612.287707 53.6707218,613.326167 47.8601122,610.833864 Z" id="P1"></path>
                    <path d="M74.2153773,192.750099 C67.9897241,189.219337 64.461854,182.365505 65.2919411,176.134748 C66.5370717,169.073224 71.9326378,163.673235 78.158291,162.427084 C85.2140313,161.596317 92.0622498,165.127079 94.9675546,170.527068 C98.0803812,177.173208 97.0427723,184.442424 92.6848151,189.219337 C87.289249,194.203942 80.025987,195.242402 74.2153773,192.750099 Z" id="P1"></path>
                    <path d="M64.2543322,225.357725 C63.6317669,221.203888 65.2919411,217.465434 68.1972459,215.596207 C71.725116,213.519288 75.8755515,213.934672 78.5733345,216.219282 C81.6861611,218.919277 82.5162482,223.073114 81.2711176,226.396185 C79.4034216,230.134639 75.8755515,232.211557 72.3476814,232.003866 C68.4047677,231.38079 65.2919411,228.680795 64.2543322,225.357725 Z" id="P4"></path>
                    <path d="M70.6875072,242.596152 C72.7627249,238.234622 76.9131604,235.742319 81.0635958,235.950011 C85.8365966,236.573087 89.5719885,239.896157 90.6095974,243.842303 C91.6472062,248.619216 89.5719885,253.188438 86.0441184,255.473049 C81.8936829,257.757659 76.9131604,257.342276 73.592812,254.642281 C70.2724636,251.319211 69.027333,246.542297 70.6875072,242.596152 Z" id="P3"></path>
                    <path d="M45.9924162,311.342166 C39.766763,307.811404 36.2388929,300.957571 37.06898,294.726815 C38.3141106,287.665291 43.7096767,282.265302 49.9353299,281.01915 C56.9910702,280.188383 63.8392887,283.719145 66.7445935,289.119134 C69.8574201,295.765274 68.8198112,303.03449 64.461854,307.811404 C59.0662879,312.796009 51.8030259,313.834468 45.9924162,311.342166 Z" id="P1"></path>
                    <path d="M73.592812,320.895992 C78.3658128,320.895992 82.5162482,323.803679 83.9689006,327.542133 C85.421553,332.111354 84.1764224,336.888268 81.0635958,339.588262 C77.1206821,342.495948 72.1401596,342.70364 68.6122895,340.41903 C64.6693758,337.511343 63.0092016,332.942122 64.0468105,328.788284 C65.4994629,324.219063 69.4423765,321.311376 73.592812,320.895992 Z" id="P5"></path>
                    <path d="M69.027333,379.880488 C72.3476814,377.388185 76.4981168,377.388185 79.4034216,379.257412 C82.72377,381.542023 84.1764224,385.488169 83.3463353,389.018931 C81.8936829,392.757385 78.7808563,395.457379 75.2529862,395.665071 C71.1025507,395.665071 67.5746806,393.172768 66.32955,390.05739 C65.0844193,386.111244 66.32955,382.165098 69.027333,379.880488 Z" id="P0"></path>
                    <path d="M67.3671588,444.888048 C70.6875072,442.395745 74.8379426,442.395745 77.7432475,444.264972 C81.0635958,446.549583 82.5162482,450.495729 81.6861611,454.026491 C80.2335087,457.764945 77.1206821,460.464939 73.592812,460.672631 C69.4423765,460.672631 65.9145064,458.180328 64.6693758,455.06495 C63.4242451,451.118804 64.6693758,447.172658 67.3671588,444.888048 Z" id="P0"></path>
                    <path d="M62.3866363,509.687916 C67.159637,509.687916 71.3100725,512.595602 72.7627249,516.334056 C74.2153773,520.903278 72.9702467,525.680191 69.8574201,528.380186 C65.9145064,531.287872 60.9339839,531.495564 57.4061137,529.210953 C53.4632,526.303267 51.8030259,521.734045 52.8406347,517.580208 C54.2932871,513.010986 58.2362008,510.1033 62.3866363,509.687916 Z" id="P5"></path>
                    <path d="M72.7627249,570.74933 C66.5370717,567.218568 63.0092016,560.364736 63.8392887,554.133979 C65.0844193,547.072455 70.4799854,541.672466 76.7056386,540.426315 C83.7613789,539.595547 90.6095974,543.126309 93.5149022,548.526298 C96.6277288,555.172439 95.5901199,562.441655 91.2321627,567.218568 C85.8365966,572.203173 78.5733345,573.241633 72.7627249,570.74933 Z" id="P1"></path>
                    <path d="M67.159637,587.156989 C69.2348548,582.795459 73.3852902,580.303157 77.5357257,580.510849 C82.3087265,581.133924 86.0441184,584.456995 87.0817272,588.40314 C88.1193361,593.180054 86.0441184,597.749275 82.5162482,600.033886 C78.3658128,602.318497 73.3852902,601.903113 70.0649419,599.203118 C66.7445935,595.880048 65.4994629,591.103135 67.159637,587.156989 Z" id="P3"></path>
                    <path d="M79.6109434,650.918398 C78.9883781,646.76456 80.6485523,643.026106 83.5538571,641.156879 C87.0817272,639.07996 91.2321627,639.495344 93.9299457,641.779955 C97.0427723,644.479949 97.8728594,648.633787 96.6277288,651.956857 C94.7600328,655.695311 91.2321627,657.77223 87.7042925,657.564538 C83.7613789,656.941462 80.6485523,654.241468 79.6109434,650.918398 Z" id="P4"></path>
                    <path d="M82.5162482,668.156824 C81.8936829,664.002986 83.5538571,660.264533 86.4591619,658.395306 C89.987032,656.318387 94.1374675,656.733771 96.8352506,659.018381 C99.9480771,661.718376 100.778164,665.872213 99.5330336,669.195284 C97.6653376,672.933738 94.1374675,675.010656 90.6095974,674.802965 C86.6666837,674.179889 83.5538571,671.479894 82.5162482,668.156824 Z" id="P4"></path>
                    <path d="M110.946731,122.965626 C113.021949,118.604096 117.172384,116.111794 121.32282,116.319486 C126.095821,116.942561 129.831212,120.265631 130.868821,124.211777 C131.90643,128.988691 129.831212,133.557912 126.303342,135.842523 C122.152907,138.127133 117.172384,137.71175 113.852036,135.011755 C110.531688,131.688685 109.286557,126.911772 110.946731,122.965626 Z" id="P3"></path>
                    <path d="M120.700254,155.36556 C126.510864,151.211722 133.774126,151.00403 138.96217,154.327101 C144.77278,158.480938 147.263041,165.33477 145.810389,171.357835 C143.527649,178.003975 137.71704,182.573197 131.698908,182.988581 C124.435646,182.988581 118.625037,178.834743 116.134775,173.227062 C114.059558,166.37323 116.134775,159.311706 120.700254,155.36556 Z" id="P2"></path>
                    <path d="M110.946731,175.927057 C115.719732,175.927057 119.870167,178.834743 121.32282,182.573197 C122.775472,187.142418 121.530342,191.919332 118.417515,194.619326 C114.474601,197.527013 109.494079,197.734705 105.966209,195.450094 C102.023295,192.542407 100.363121,187.973186 101.40073,183.819348 C102.853382,179.250127 106.796296,176.34244 110.946731,175.927057 Z" id="P5"></path>
                    <path d="M102.438338,236.365395 C107.211339,236.365395 111.361775,239.273082 112.814427,243.011535 C114.267079,247.580757 113.021949,252.35767 109.909122,255.057665 C105.966209,257.965351 100.985686,258.173043 97.4578159,255.888432 C93.5149022,252.980746 91.854728,248.411524 92.8923369,244.257687 C94.3449893,239.688465 98.287903,236.780779 102.438338,236.365395 Z" id="P5"></path>
                    <path d="M89.987032,294.103739 C94.7600328,294.103739 98.9104683,297.011426 100.363121,300.74988 C101.815773,305.319101 100.570642,310.096014 97.4578159,312.796009 C93.5149022,315.703695 88.5343796,315.911387 85.0065095,313.626776 C81.0635958,310.71909 79.4034216,306.149869 80.4410305,301.996031 C81.8936829,297.426809 85.8365966,294.519123 89.987032,294.103739 Z" id="P5"></path>
                    <path d="M97.0427723,359.111299 C96.420207,354.957462 98.0803812,351.219008 100.985686,349.349781 C104.513556,347.272862 108.663992,347.688246 111.361775,349.972856 C114.474601,352.672851 115.304688,356.826688 114.059558,360.149759 C112.191862,363.888213 108.663992,365.965131 105.136121,365.75744 C101.193208,365.134364 98.0803812,362.434369 97.0427723,359.111299 Z" id="P4"></path>
                    <path d="M78.158291,437.618832 C71.9326378,434.08807 68.4047677,427.234238 69.2348548,421.003481 C70.4799854,413.941957 75.8755515,408.541968 82.1012047,407.295817 C89.156945,406.465049 96.0051635,409.995811 98.9104683,415.3958 C102.023295,422.04194 100.985686,429.311156 96.6277288,434.08807 C91.2321627,439.072675 83.9689006,440.111134 78.158291,437.618832 Z" id="P1"></path>
                    <path d="M108.45647,414.149649 C113.229471,414.149649 117.379906,417.057335 118.832558,420.795789 C120.285211,425.365011 119.04008,430.141924 115.927254,432.841918 C111.98434,435.749605 107.003817,435.957297 103.475947,433.672686 C99.5330336,430.765 97.8728594,426.195778 98.9104683,422.04194 C100.363121,417.472719 104.306034,414.565033 108.45647,414.149649 Z" id="P5"></path>
                    <path d="M105.136121,515.503289 C108.45647,513.010986 112.606905,513.010986 115.51221,514.880213 C118.832558,517.164824 120.285211,521.11097 119.455124,524.641732 C118.002471,528.380186 114.889645,531.08018 111.361775,531.287872 C107.211339,531.287872 103.683469,528.795569 102.438338,525.680191 C101.193208,521.734045 102.438338,517.787899 105.136121,515.503289 Z" id="P0"></path>
                    <path d="M81.0635958,539.387855 C84.3839442,536.895553 88.5343796,536.895553 91.4396845,538.76478 C94.7600328,541.049391 96.2126852,544.995536 95.3825981,548.526298 C93.9299457,552.264752 90.8171191,554.964747 87.289249,555.172439 C83.1388135,555.172439 79.6109434,552.680136 78.3658128,549.564758 C77.1206821,545.618612 78.3658128,541.672466 81.0635958,539.387855 Z" id="P0"></path>
                    <path d="M113.229471,587.364681 C112.606905,583.210843 114.267079,579.472389 117.172384,577.603162 C120.700254,575.526243 124.85069,575.941627 127.548473,578.226238 C130.6613,580.926232 131.491387,585.08007 130.246256,588.40314 C128.37856,592.141594 124.85069,594.218513 121.32282,594.010821 C117.379906,593.387746 114.267079,590.687751 113.229471,587.364681 Z" id="P4"></path>
                    <path d="M105.758687,639.703036 C109.079035,637.210733 113.229471,637.210733 116.134775,639.07996 C119.455124,641.364571 120.907776,645.310717 120.077689,648.841479 C118.625037,652.579933 115.51221,655.279927 111.98434,655.487619 C107.833905,655.487619 104.306034,652.995317 103.060904,649.879938 C101.815773,645.933792 103.060904,641.987647 105.758687,639.703036 Z" id="P0"></path>
                    <path d="M114.267079,651.749165 C119.04008,651.749165 123.190516,654.656852 124.643168,658.395306 C126.095821,662.964527 124.85069,667.74144 121.737863,670.441435 C117.79495,673.349121 112.814427,673.556813 109.286557,671.272202 C105.343643,668.364516 103.683469,663.795295 104.721078,659.641457 C106.17373,655.072235 110.116644,652.164549 114.267079,651.749165 Z" id="P5"></path>
                    <path d="M120.492733,711.149044 C119.870167,706.995207 121.530342,703.256753 124.435646,701.387526 C127.963516,699.310607 132.113952,699.725991 134.811735,702.010601 C137.924562,704.710596 138.754649,708.864434 137.509518,712.187504 C135.641822,715.925958 132.113952,718.002877 128.586082,717.795185 C124.643168,717.172109 121.530342,714.472115 120.492733,711.149044 Z" id="P4"></path>
                    <path d="M183.579352,89.9426162 C182.956786,85.7887785 184.61696,82.0503245 187.522265,80.1810976 C191.050135,78.1041787 195.200571,78.5195625 197.898354,80.8041732 C201.01118,83.5041677 201.841268,87.6580054 200.596137,90.9810756 C198.728441,94.7195295 195.200571,96.7964484 191.672701,96.5887565 C187.729787,95.9656808 184.61696,93.2656863 183.579352,89.9426162 Z" id="P4"></path>
                    <path d="M180.466525,98.6656753 C185.239526,98.6656753 189.389961,101.573362 190.842614,105.311816 C192.295266,109.881037 191.050135,114.65795 187.937309,117.357945 C183.994395,120.265631 179.013873,120.473323 175.486002,118.188713 C171.543089,115.281026 169.882915,110.711805 170.920523,106.557967 C172.373176,101.988745 176.31609,99.0810591 180.466525,98.6656753 Z" id="P5"></path>
                    <path d="M145.602867,128.157923 C151.413477,124.004085 158.676739,123.796393 163.864783,127.119464 C169.675393,131.273301 172.165654,138.127133 170.713002,144.150198 C168.430262,150.796338 162.619653,155.36556 156.601521,155.780944 C149.338259,155.780944 143.527649,151.627106 141.037388,146.019425 C138.96217,139.165593 141.037388,132.104069 145.602867,128.157923 Z" id="P2"></path>
                    <path d="M143.112606,195.865478 C147.885607,195.865478 152.036042,198.773164 153.488695,202.511618 C154.941347,207.080839 153.696216,211.857753 150.58339,214.557747 C146.640476,217.465434 141.659953,217.673125 138.132083,215.388515 C134.18917,212.480828 132.528995,207.911607 133.566604,203.757769 C135.019257,199.188548 138.96217,196.280861 143.112606,195.865478 Z" id="P5"></path>
                    <path d="M121.737863,226.603877 C123.813081,222.242347 127.963516,219.750044 132.113952,219.957736 C136.886953,220.580812 140.622345,223.903882 141.659953,227.850028 C142.697562,232.626941 140.622345,237.196163 137.094474,239.480773 C132.944039,241.765384 127.963516,241.35 124.643168,238.650006 C121.32282,235.326936 120.077689,230.550022 121.737863,226.603877 Z" id="P3"></path>
                    <path d="M113.436992,288.496058 C116.757341,286.003756 120.907776,286.003756 123.813081,287.872983 C127.133429,290.157593 128.586082,294.103739 127.755995,297.634501 C126.303342,301.372955 123.190516,304.07295 119.662646,304.280642 C115.51221,304.280642 111.98434,301.788339 110.739209,298.672961 C109.494079,294.726815 110.739209,290.780669 113.436992,288.496058 Z" id="P0"></path>
                    <path d="M117.379906,333.565197 C123.190516,329.41136 130.453778,329.203668 135.641822,332.526738 C141.452432,336.680576 143.942693,343.534408 142.490041,349.557472 C140.207301,356.203613 134.396691,360.772834 128.37856,361.188218 C121.115298,361.188218 115.304688,357.03438 112.814427,351.426699 C110.739209,344.572867 112.814427,337.511343 117.379906,333.565197 Z" id="P2"></path>
                    <path d="M143.112606,393.588152 C142.490041,389.434314 144.150215,385.69586 147.05552,383.826634 C150.58339,381.749715 154.733825,382.165098 157.431608,384.449709 C160.544435,387.149704 161.374522,391.303541 160.129391,394.626612 C158.261695,398.365065 154.733825,400.441984 151.205955,400.234292 C147.263041,399.611217 144.150215,396.911222 143.112606,393.588152 Z" id="P4"></path>
                    <path d="M105.343643,468.772615 C107.418861,464.411085 111.569296,461.918782 115.719732,462.126474 C120.492733,462.74955 124.228125,466.07262 125.265733,470.018766 C126.303342,474.795679 124.228125,479.364901 120.700254,481.649511 C116.549819,483.934122 111.569296,483.518738 108.248948,480.818744 C104.9286,477.495674 103.683469,472.71876 105.343643,468.772615 Z" id="P3"></path>
                    <path d="M137.094474,480.611052 C140.414823,478.118749 144.565258,478.118749 147.470563,479.987976 C150.790911,482.272587 152.243564,486.218733 151.413477,489.749495 C149.960824,493.487949 146.847998,496.187943 143.320128,496.395635 C139.169692,496.395635 135.641822,493.903333 134.396691,490.787954 C133.151561,486.841809 134.396691,482.895663 137.094474,480.611052 Z" id="P0"></path>
                    <path d="M156.601521,594.841589 C150.375868,591.310827 146.847998,584.456995 147.678085,578.226238 C148.923216,571.164714 154.318782,565.764725 160.544435,564.518574 C167.600175,563.687806 174.448394,567.218568 177.353698,572.618557 C180.466525,579.264697 179.428916,586.533913 175.070959,591.310827 C169.675393,596.295432 162.412131,597.333891 156.601521,594.841589 Z" id="P1"></path>
                    <path d="M154.11126,616.649237 C153.488695,612.495399 155.148869,608.756945 158.054174,606.887718 C161.582044,604.810799 165.732479,605.226183 168.430262,607.510794 C171.543089,610.210788 172.373176,614.364626 171.128045,617.687696 C169.260349,621.42615 165.732479,623.503069 162.204609,623.295377 C158.261695,622.672301 155.148869,619.972307 154.11126,616.649237 Z" id="P4"></path>
                    <path d="M130.868821,646.972252 C136.679431,642.818414 143.942693,642.610722 149.130737,645.933792 C154.941347,650.08763 157.431608,656.941462 155.978956,662.964527 C153.696216,669.610667 147.885607,674.179889 141.867475,674.595273 C134.604213,674.595273 128.793604,670.441435 126.303342,664.833754 C124.228125,657.979922 126.303342,650.918398 130.868821,646.972252 Z" id="P2"></path>
                    <path d="M140.414823,667.949132 C142.490041,663.587603 146.640476,661.0953 150.790911,661.302992 C155.563912,661.926068 159.299304,665.249138 160.336913,669.195284 C161.374522,673.972197 159.299304,678.541418 155.771434,680.826029 C151.620999,683.11064 146.640476,682.695256 143.320128,679.995262 C139.999779,676.672191 138.754649,671.895278 140.414823,667.949132 Z" id="P3"></path>
                    <path d="M174.448394,720.287487 C177.768742,717.795185 181.919177,717.795185 184.824482,719.664412 C188.144831,721.949022 189.597483,725.895168 188.767396,729.42593 C187.314743,733.164384 184.201917,735.864379 180.674047,736.072071 C176.523611,736.072071 172.995741,733.579768 171.750611,730.46439 C170.50548,726.518244 171.750611,722.572098 174.448394,720.287487 Z" id="P0"></path>
                    <path d="M171.750611,737.733606 C177.56122,733.579768 184.824482,733.372076 190.012527,736.695146 C195.823136,740.848984 198.313397,747.702816 196.860745,753.725881 C194.578006,760.372021 188.767396,764.941243 182.749264,765.356626 C175.486002,765.356626 169.675393,761.202789 167.185132,755.595108 C165.109914,748.741276 167.185132,741.679752 171.750611,737.733606 Z" id="P2"></path>
                    <path d="M196.653223,70.8349627 C198.728441,66.4734331 202.878876,63.9811305 207.029312,64.1888224 C211.802313,64.8118981 215.537705,68.1349682 216.575313,72.081114 C217.612922,76.8580274 215.537705,81.4272489 212.009834,83.7118596 C207.859399,85.9964703 202.878876,85.5810866 199.558528,82.8810921 C196.23818,79.5580219 194.993049,74.7811085 196.653223,70.8349627 Z" id="P3"></path>
                    <path d="M208.274443,114.65795 C202.048789,111.127188 198.520919,104.273356 199.351006,98.0425997 C200.596137,90.9810756 205.991703,85.5810866 212.217356,84.3349353 C219.273096,83.5041677 226.121315,87.0349298 229.02662,92.4349188 C232.139446,99.0810591 231.101838,106.350275 226.74388,111.127188 C221.348314,116.111794 214.085052,117.150253 208.274443,114.65795 Z" id="P1"></path>
                    <path d="M209.934617,123.796393 C213.254965,121.304091 217.405401,121.304091 220.310705,123.173318 C223.631054,125.457928 225.083706,129.404074 224.253619,132.934836 C222.800967,136.67329 219.68814,139.373285 216.16027,139.580977 C212.009834,139.580977 208.481964,137.088674 207.236834,133.973296 C205.991703,130.02715 207.236834,126.081004 209.934617,123.796393 Z" id="P0"></path>
                    <path d="M199.76605,194.619326 C201.841268,190.257797 205.991703,187.765494 210.142138,187.973186 C214.915139,188.596262 218.650531,191.919332 219.68814,195.865478 C220.725749,200.642391 218.650531,205.211612 215.122661,207.496223 C210.972226,209.780834 205.991703,209.36545 202.671355,206.665456 C199.351006,203.342385 198.105876,198.565472 199.76605,194.619326 Z" id="P3"></path>
                    <path d="M189.182439,233.250017 C194.993049,229.096179 202.256311,228.888487 207.444355,232.211557 C213.254965,236.365395 215.745226,243.219227 214.292574,249.242292 C212.009834,255.888432 206.199225,260.457654 200.181093,260.873038 C192.917831,260.873038 187.107222,256.7192 184.61696,251.111519 C182.541743,244.257687 184.61696,237.196163 189.182439,233.250017 Z" id="P2"></path>
                    <path d="M148.923216,470.849533 C148.30065,466.695696 149.960824,462.957242 152.866129,461.088015 C156.393999,459.011096 160.544435,459.42648 163.242218,461.71109 C166.355044,464.411085 167.185132,468.564923 165.940001,471.887993 C164.072305,475.626447 160.544435,477.703366 157.016565,477.495674 C153.073651,476.872598 149.960824,474.172604 148.923216,470.849533 Z" id="P4"></path>
                    <path d="M175.693524,560.364736 C181.504134,556.210898 188.767396,556.003206 193.95544,559.326276 C199.76605,563.480114 202.256311,570.333946 200.803659,576.357011 C198.520919,583.003151 192.71031,587.572373 186.692178,587.987757 C179.428916,587.987757 173.618306,583.833919 171.128045,578.226238 C169.052827,571.372406 171.128045,564.310882 175.693524,560.364736 Z" id="P2"></path>
                    <path d="M205.784181,608.549253 C199.558528,605.018491 196.030658,598.164659 196.860745,591.933902 C198.105876,584.872378 203.501442,579.472389 209.727095,578.226238 C216.782835,577.39547 223.631054,580.926232 226.536359,586.326221 C229.649185,592.972362 228.611576,600.241578 224.253619,605.018491 C218.858053,610.003096 211.594791,611.041556 205.784181,608.549253 Z" id="P1"></path>
                    <path d="M199.973572,663.795295 C193.747918,660.264533 190.220048,653.4107 191.050135,647.179944 C192.295266,640.11842 197.690832,634.718431 203.916485,633.472279 C210.972226,632.641512 217.820444,636.172274 220.725749,641.572263 C223.838575,648.218403 222.800967,655.487619 218.443009,660.264533 C213.047443,665.249138 205.784181,666.287597 199.973572,663.795295 Z" id="P1"></path>
                    <path d="M217.197879,717.587493 C210.972226,714.056731 207.444355,707.202899 208.274443,700.972142 C209.519573,693.910618 214.915139,688.510629 221.140792,687.264478 C228.196533,686.43371 235.044751,689.964472 237.950056,695.364461 C241.062883,702.010601 240.025274,709.279817 235.667317,714.056731 C230.27175,719.041336 223.008488,720.079795 217.197879,717.587493 Z" id="P1"></path>
                    <path d="M214.085052,736.279762 C218.858053,736.279762 223.008488,739.187449 224.461141,742.925903 C225.913793,747.495124 224.668663,752.272038 221.555836,754.972032 C217.612922,757.879719 212.6324,758.08741 209.10453,755.8028 C205.161616,752.895113 203.501442,748.325892 204.539051,744.172054 C205.991703,739.602833 209.934617,736.695146 214.085052,736.279762 Z" id="P5"></path>
                    <path d="M210.34966,748.741276 C212.424878,744.379746 216.575313,741.887443 220.725749,742.095135 C225.49875,742.718211 229.234142,746.041281 230.27175,749.987427 C231.309359,754.76434 229.234142,759.333562 225.706271,761.618172 C221.555836,763.902783 216.575313,763.487399 213.254965,760.787405 C209.934617,757.464335 208.689486,752.687421 210.34966,748.741276 Z" id="P3"></path>
                    <path d="M256.627016,57.5426821 C250.401362,54.01192 246.873492,47.1580878 247.703579,40.9273313 C248.94871,33.8658072 254.344276,28.4658182 260.569929,27.2196669 C267.62567,26.3888993 274.473888,29.9196614 277.379193,35.3196504 C280.492019,41.9657907 279.454411,49.2350067 275.096453,54.01192 C269.700887,58.9965253 262.437625,60.0349847 256.627016,57.5426821 Z" id="P1"></path>
                    <path d="M270.323453,84.9580109 C264.097799,81.4272489 260.569929,74.5734167 261.400016,68.3426601 C262.645147,61.281136 268.040713,55.881147 274.266366,54.6349957 C281.322107,53.8042281 288.170325,57.3349902 291.07563,62.7349792 C294.188456,69.3811195 293.150848,76.6503355 288.79289,81.4272489 C283.397324,86.4118541 276.134062,87.4503135 270.323453,84.9580109 Z" id="P1"></path>
                    <path d="M255.589407,104.68874 C260.362407,104.68874 264.512843,107.596426 265.965495,111.33488 C267.418148,115.904102 266.173017,120.681015 263.060191,123.38101 C259.117277,126.288696 254.136754,126.496388 250.608884,124.211777 C246.66597,121.304091 245.005796,116.734869 246.043405,112.581032 C247.496058,108.01181 251.438971,105.104124 255.589407,104.68874 Z" id="P5"></path>
                    <path d="M231.101838,145.811733 C230.479272,141.657896 232.139446,137.919442 235.044751,136.050215 C238.572621,133.973296 242.723057,134.38868 245.42084,136.67329 C248.533666,139.373285 249.363754,143.527123 248.118623,146.850193 C246.250927,150.588647 242.723057,152.665565 239.195187,152.457874 C235.252273,151.834798 232.139446,149.134803 231.101838,145.811733 Z" id="P4"></path>
                    <path d="M251.231449,166.165538 C257.042059,162.0117 264.305321,161.804008 269.493365,165.127079 C275.303975,169.280916 277.794236,176.134748 276.341584,182.157813 C274.058844,188.803953 268.248235,193.373175 262.230103,193.788559 C254.966841,193.788559 249.156232,189.634721 246.66597,184.02704 C244.590753,177.173208 246.66597,170.111684 251.231449,166.165538 Z" id="P2"></path>
                    <path d="M266.588061,189.219337 C271.361061,189.219337 275.511497,192.127024 276.964149,195.865478 C278.416802,200.434699 277.171671,205.211612 274.058844,207.911607 C270.115931,210.819293 265.135408,211.026985 261.607538,208.742374 C257.664624,205.834688 256.00445,201.265467 257.042059,197.111629 C258.494712,192.542407 262.437625,189.634721 266.588061,189.219337 Z" id="P5"></path>
                    <path d="M228.404054,647.595328 C234.214664,643.44149 241.477926,643.233798 246.66597,646.556868 C252.47658,650.710706 254.966841,657.564538 253.514189,663.587603 C251.231449,670.233743 245.42084,674.802965 239.402708,675.218348 C232.139446,675.218348 226.328837,671.064511 223.838575,665.45683 C221.763358,658.602997 223.838575,651.541473 228.404054,647.595328 Z" id="P2"></path>
                    <path d="M234.214664,700.349066 C236.289882,695.987537 240.440317,693.495234 244.590753,693.702926 C249.363754,694.326002 253.099145,697.649072 254.136754,701.595218 C255.174363,706.372131 253.099145,710.941353 249.571275,713.225963 C245.42084,715.510574 240.440317,715.09519 237.119969,712.395196 C233.799621,709.072126 232.55449,704.295212 234.214664,700.349066 Z" id="P3"></path>
                    <path d="M279.039367,756.425875 C272.813714,752.895113 269.285844,746.041281 270.115931,739.810525 C271.361061,732.749 276.756628,727.349011 282.982281,726.10286 C290.038021,725.272093 296.886239,728.802855 299.791544,734.202844 C302.904371,740.848984 301.866762,748.1182 297.508805,752.895113 C292.113239,757.879719 284.849977,758.918178 279.039367,756.425875 Z" id="P1"></path>
                    <path d="M267.418148,758.295102 C272.191149,758.295102 276.341584,761.202789 277.794236,764.941243 C279.246889,769.510464 278.001758,774.287377 274.888932,776.987372 C270.946018,779.895058 265.965495,780.10275 262.437625,777.81814 C258.494712,774.910453 256.834537,770.341232 257.872146,766.187394 C259.324799,761.618172 263.267712,758.710486 267.418148,758.295102 Z" id="P5"></path>
                    <path d="M313.695503,7.28124589 C318.468504,7.28124589 322.618939,10.1889323 324.071592,13.9273862 C325.524244,18.4966077 324.279113,23.273521 321.166287,25.9735155 C317.223373,28.8812019 312.242851,29.0888938 308.714981,26.8042831 C304.772067,23.8965967 303.111893,19.3273752 304.149502,15.1735375 C305.602154,10.6043161 309.545068,7.69662966 313.695503,7.28124589 Z" id="P5"></path>
                    <path d="M328.844592,52.9734606 C322.618939,49.4426986 319.091069,42.5888664 319.921156,36.3581098 C321.166287,29.2965857 326.561853,23.8965967 332.787506,22.6504454 C339.843246,21.8196778 346.691465,25.3504399 349.59677,30.7504289 C352.709596,37.3965692 351.671987,44.6657852 347.31403,49.4426986 C341.918464,54.4273038 334.655202,55.4657632 328.844592,52.9734606 Z" id="P1"></path>
                    <path d="M324.901679,61.0734441 C326.976897,56.7119145 331.127332,54.2196119 335.277767,54.4273038 C340.050768,55.0503795 343.78616,58.3734496 344.823769,62.3195954 C345.861378,67.0965088 343.78616,71.6657303 340.25829,73.950341 C336.107855,76.2349517 331.127332,75.819568 327.806984,73.1195735 C324.486635,69.7965033 323.241505,65.0195899 324.901679,61.0734441 Z" id="P3"></path>
                    <path d="M309.337546,105.104124 C311.412764,100.742594 315.563199,98.2502916 319.713634,98.4579834 C324.486635,99.0810591 328.222027,102.404129 329.259636,106.350275 C330.297245,111.127188 328.222027,115.69641 324.694157,117.981021 C320.543722,120.265631 315.563199,119.850248 312.242851,117.150253 C308.922502,113.827183 307.677372,109.05027 309.337546,105.104124 Z" id="P3"></path>
                    <path d="M276.549106,138.127133 C270.323453,134.596371 266.795582,127.742539 267.62567,121.511783 C268.8708,114.450259 274.266366,109.05027 280.492019,107.804118 C287.54776,106.973351 294.395978,110.504113 297.301283,115.904102 C300.41411,122.550242 299.376501,129.819458 295.018544,134.596371 C289.622977,139.580977 282.359715,140.619436 276.549106,138.127133 Z" id="P1"></path>
                    <path d="M304.564545,162.0117 C310.375155,157.857863 317.638417,157.650171 322.826461,160.973241 C328.637071,165.127079 331.127332,171.980911 329.67468,178.003975 C327.39194,184.650116 321.58133,189.219337 315.563199,189.634721 C308.299937,189.634721 302.489327,185.480883 299.999066,179.873202 C297.923848,173.01937 299.999066,165.957846 304.564545,162.0117 Z" id="P2"></path>
                    <path d="M324.694157,726.725936 C318.468504,723.195174 314.940634,716.341342 315.770721,710.110585 C317.015851,703.049061 322.411418,697.649072 328.637071,696.402921 C335.692811,695.572153 342.541029,699.102915 345.446334,704.502904 C348.559161,711.149044 347.521552,718.41826 343.163595,723.195174 C337.768029,728.179779 330.504767,729.218238 324.694157,726.725936 Z" id="P1"></path>
                    <path d="M320.751243,754.76434 C324.071592,752.272038 328.222027,752.272038 331.127332,754.141265 C334.44768,756.425875 335.900333,760.372021 335.070246,763.902783 C333.617593,767.641237 330.504767,770.341232 326.976897,770.548924 C322.826461,770.548924 319.298591,768.056621 318.05346,764.941243 C316.80833,760.995097 318.05346,757.048951 320.751243,754.76434 Z" id="P0"></path>
                    <path d="M334.032637,764.525859 C337.352985,762.033556 341.503421,762.033556 344.408725,763.902783 C347.729074,766.187394 349.181726,770.13354 348.351639,773.664302 C346.898987,777.402756 343.78616,780.10275 340.25829,780.310442 C336.107855,780.310442 332.579984,777.81814 331.334854,774.702761 C330.089723,770.756615 331.334854,766.81047 334.032637,764.525859 Z" id="P0"></path>
                    <path d="M316.185764,798.379636 C319.506113,795.887334 323.656548,795.887334 326.561853,797.75656 C329.882201,800.041171 331.334854,803.987317 330.504767,807.518079 C329.052114,811.256533 325.939288,813.956528 322.411418,814.164219 C318.260982,814.164219 314.733112,811.671917 313.487981,808.556539 C312.242851,804.610393 313.487981,800.664247 316.185764,798.379636 Z" id="P0"></path>
                    <path d="M340.050768,33.2427315 C342.125986,28.8812019 346.276421,26.3888993 350.426857,26.5965912 C355.199858,27.2196669 358.93525,30.542737 359.972858,34.4888828 C361.010467,39.2657962 358.93525,43.8350177 355.407379,46.1196284 C351.256944,48.4042391 346.276421,47.9888554 342.956073,45.2888609 C339.635725,41.9657907 338.390594,37.1888773 340.050768,33.2427315 Z" id="P3"></path>
                    <path d="M363.085685,29.7119695 C367.858686,29.7119695 372.009121,32.6196559 373.461774,36.3581098 C374.914426,40.9273313 373.669295,45.7042446 370.556469,48.4042391 C366.613555,51.3119255 361.633033,51.5196174 358.105162,49.2350067 C354.162249,46.3273203 352.502075,41.7580988 353.539683,37.6042611 C354.992336,33.0350396 358.93525,30.1273533 363.085685,29.7119695 Z" id="P5"></path>
                    <path d="M377.612209,84.750319 C383.422819,80.5964813 390.686081,80.3887894 395.874125,83.7118596 C401.684735,87.8656973 404.174996,94.7195295 402.722344,100.742594 C400.439604,107.388734 394.628994,111.957956 388.610863,112.37334 C381.347601,112.37334 375.536991,108.219502 373.04673,102.611821 C370.971512,95.7579889 373.04673,88.6964648 377.612209,84.750319 Z" id="P2"></path>
                    <path d="M349.389248,126.911772 C343.163595,123.38101 339.635725,116.527177 340.465812,110.296421 C341.710942,103.234897 347.106508,97.8349078 353.332162,96.5887565 C360.387902,95.7579889 367.23612,99.288751 370.141425,104.68874 C373.254252,111.33488 372.216643,118.604096 367.858686,123.38101 C362.46312,128.365615 355.199858,129.404074 349.389248,126.911772 Z" id="P1"></path>
                    <path d="M353.747205,695.364461 C355.822423,691.002932 359.972858,688.510629 364.123294,688.718321 C368.896295,689.341396 372.631687,692.664467 373.669295,696.610612 C374.706904,701.387526 372.631687,705.956747 369.103816,708.241358 C364.953381,710.525969 359.972858,710.110585 356.65251,707.41059 C353.332162,704.08752 352.087031,699.310607 353.747205,695.364461 Z" id="P3"></path>
                    <path d="M330.089723,760.787405 C329.467158,756.633567 331.127332,752.895113 334.032637,751.025886 C337.560507,748.948967 341.710942,749.364351 344.408725,751.648962 C347.521552,754.348956 348.351639,758.502794 347.106508,761.825864 C345.238813,765.564318 341.710942,767.641237 338.183072,767.433545 C334.240159,766.81047 331.127332,764.110475 330.089723,760.787405 Z" id="P4"></path>
                    <path d="M339.635725,780.518134 C345.446334,776.364296 352.709596,776.156604 357.897641,779.479675 C363.70825,783.633512 366.198512,790.487345 364.745859,796.510409 C362.46312,803.156549 356.65251,807.725771 350.634379,808.141155 C343.371117,808.141155 337.560507,803.987317 335.070246,798.379636 C332.995028,791.525804 335.070246,784.46428 339.635725,780.518134 Z" id="P2"></path>
                    <path d="M382.800253,824.13343 C376.5746,820.602668 373.04673,813.748836 373.876817,807.518079 C375.121948,800.456555 380.517514,795.056566 386.743167,793.810415 C393.798907,792.979647 400.647126,796.510409 403.552431,801.910398 C406.665257,808.556539 405.627648,815.825754 401.269691,820.602668 C395.874125,825.587273 388.610863,826.625733 382.800253,824.13343 Z" id="P1"></path>
                    <path d="M391.72369,819.979592 C396.49669,819.979592 400.647126,822.887279 402.099778,826.625733 C403.552431,831.194954 402.3073,835.971867 399.194473,838.671862 C395.25156,841.579548 390.271037,841.78724 386.743167,839.502629 C382.800253,836.594943 381.140079,832.025722 382.177688,827.871884 C383.63034,823.302662 387.573254,820.394976 391.72369,819.979592 Z" id="P5"></path>
                    <path d="M420.776738,6.65817024 C422.851956,2.29664065 427.002391,-0.195661969 431.152826,0.0120299159 C435.925827,0.635105571 439.661219,3.95817573 440.698828,7.90432155 C441.736437,12.6812349 439.661219,17.2504564 436.133349,19.5350671 C431.982914,21.8196778 427.002391,21.4042941 423.682043,18.7042996 C420.361694,15.3812294 419.116564,10.6043161 420.776738,6.65817024 Z" id="P3"></path>
                    <path d="M405.212605,13.0966187 C407.287823,8.73508909 411.438258,6.24278647 415.588694,6.45047835 C420.361694,7.07355401 424.097086,10.3966242 425.134695,14.34277 C426.172304,19.1196833 424.097086,23.6889048 420.569216,25.9735155 C416.418781,28.2581263 411.438258,27.8427425 408.11791,25.142748 C404.797561,21.8196778 403.552431,17.0427645 405.212605,13.0966187 Z" id="P3"></path>
                    <path d="M425.964782,37.6042611 C431.775392,33.4504234 439.038654,33.2427315 444.226698,36.5658017 C450.037308,40.7196394 452.527569,47.5734716 451.074917,53.5965363 C448.792177,60.2426766 442.981568,64.8118981 436.963436,65.2272818 C429.700174,65.2272818 423.889564,61.0734441 421.399303,55.4657632 C419.324085,48.611931 421.399303,41.5504069 425.964782,37.6042611 Z" id="P2"></path>
                    <path d="M388.19582,92.4349188 C391.516168,89.9426162 395.666603,89.9426162 398.571908,91.8118431 C401.892257,94.0964539 403.344909,98.0425997 402.514822,101.573362 C401.062169,105.311816 397.949343,108.01181 394.421473,108.219502 C390.271037,108.219502 386.743167,105.727199 385.498036,102.611821 C384.252906,98.6656753 385.498036,94.7195295 388.19582,92.4349188 Z" id="P0"></path>
                    <path d="M395.874125,105.104124 C401.684735,100.950286 408.947997,100.742594 414.136041,104.065664 C419.946651,108.219502 422.436912,115.073334 420.98426,121.096399 C418.70152,127.742539 412.89091,132.311761 406.872779,132.727144 C399.609517,132.727144 393.798907,128.573307 391.308646,122.965626 C389.233428,116.111794 391.308646,109.05027 395.874125,105.104124 Z" id="P2"></path>
                    <path d="M393.176342,703.672137 C386.950689,700.141374 383.422819,693.287542 384.252906,687.056786 C385.498036,679.995262 390.893603,674.595273 397.119256,673.349121 C404.174996,672.518354 411.023215,676.049116 413.928519,681.449105 C417.041346,688.095245 416.003737,695.364461 411.64578,700.141374 C406.250214,705.12598 398.986952,706.164439 393.176342,703.672137 Z" id="P1"></path>
                    <path d="M431.775392,700.76445 C433.85061,696.402921 438.001045,693.910618 442.15148,694.11831 C446.924481,694.741385 450.659873,698.064456 451.697482,702.010601 C452.735091,706.787515 450.659873,711.356736 447.132003,713.641347 C442.981568,715.925958 438.001045,715.510574 434.680697,712.810579 C431.360348,709.487509 430.115218,704.710596 431.775392,700.76445 Z" id="P3"></path>
                    <path d="M424.097086,765.77201 C426.172304,761.410481 430.322739,758.918178 434.473175,759.12587 C439.246176,759.748946 442.981568,763.072016 444.019176,767.018161 C445.056785,771.795075 442.981568,776.364296 439.453697,778.648907 C435.303262,780.933518 430.322739,780.518134 427.002391,777.81814 C423.682043,774.495069 422.436912,769.718156 424.097086,765.77201 Z" id="P3"></path>
                    <path d="M429.700174,776.156604 C434.473175,776.156604 438.62361,779.064291 440.076263,782.802745 C441.528915,787.371966 440.283784,792.14888 437.170958,794.848874 C433.228044,797.75656 428.247522,797.964252 424.719652,795.679642 C420.776738,792.771955 419.116564,788.202734 420.154173,784.048896 C421.606825,779.479675 425.549739,776.571988 429.700174,776.156604 Z" id="P5"></path>
                    <path d="M408.325431,814.371911 C411.64578,811.879609 415.796215,811.879609 418.70152,813.748836 C422.021868,816.033446 423.474521,819.979592 422.644434,823.510354 C421.191781,827.248808 418.078955,829.948803 414.551085,830.156495 C410.400649,830.156495 406.872779,827.664192 405.627648,824.548814 C404.382518,820.602668 405.627648,816.656522 408.325431,814.371911 Z" id="P0"></path>
                    <path d="M425.549739,823.925738 C430.322739,823.925738 434.473175,826.833424 435.925827,830.571878 C437.37848,835.1411 436.133349,839.918013 433.020522,842.618008 C429.077609,845.525694 424.097086,845.733386 420.569216,843.448775 C416.626302,840.541089 414.966128,835.971867 416.003737,831.81803 C417.456389,827.248808 421.399303,824.341122 425.549739,823.925738 Z" id="P5"></path>
                    <path d="M440.90635,11.6427755 C445.679351,11.6427755 449.829786,14.5504619 451.282438,18.2889158 C452.735091,22.8581373 451.48996,27.6350506 448.377134,30.3350451 C444.43422,33.2427315 439.453697,33.4504234 435.925827,31.1658127 C431.982914,28.2581263 430.322739,23.6889048 431.360348,19.5350671 C432.813001,14.9658456 436.755914,12.0581593 440.90635,11.6427755 Z" id="P5"></path>
                    <path d="M477.637704,50.0657742 C479.712921,45.7042446 483.863357,43.211942 488.013792,43.4196339 C492.786793,44.0427096 496.522185,47.3657797 497.559794,51.3119255 C498.597403,56.0888389 496.522185,60.6580604 492.994315,62.9426711 C488.843879,65.2272818 483.863357,64.8118981 480.543008,62.1119036 C477.22266,58.7888334 475.977529,54.01192 477.637704,50.0657742 Z" id="P3"></path>
                    <path d="M475.147442,79.5580219 C474.524877,75.4041842 476.185051,71.6657303 479.090356,69.7965033 C482.618226,67.7195844 486.768662,68.1349682 489.466445,70.419579 C492.579271,73.1195735 493.409358,77.2734112 492.164228,80.5964813 C490.296532,84.3349353 486.768662,86.4118541 483.240791,86.2041622 C479.297878,85.5810866 476.185051,82.8810921 475.147442,79.5580219 Z" id="P4"></path>
                    <path d="M475.770008,122.34255 C469.544354,118.811788 466.016484,111.957956 466.846571,105.727199 C468.091702,98.6656753 473.487268,93.2656863 479.712921,92.019535 C486.768662,91.1887675 493.61688,94.7195295 496.522185,100.119519 C499.635011,106.765659 498.597403,114.034875 494.239445,118.811788 C488.843879,123.796393 481.580617,124.834853 475.770008,122.34255 Z" id="P1"></path>
                    <path d="M474.317355,721.118255 C479.090356,721.118255 483.240791,724.025941 484.693444,727.764395 C486.146096,732.333617 484.900966,737.11053 481.788139,739.810525 C477.845225,742.718211 472.864703,742.925903 469.336833,740.641292 C465.393919,737.733606 463.733745,733.164384 464.771354,729.010547 C466.224006,724.441325 470.16692,721.533639 474.317355,721.118255 Z" id="P5"></path>
                    <path d="M436.548393,762.656632 C438.62361,758.295102 442.774046,755.8028 446.924481,756.010492 C451.697482,756.633567 455.432874,759.956637 456.470483,763.902783 C457.508092,768.679697 455.432874,773.248918 451.905004,775.533529 C447.754568,777.81814 442.774046,777.402756 439.453697,774.702761 C436.133349,771.379691 434.888218,766.602778 436.548393,762.656632 Z" id="P3"></path>
                    <path d="M461.035962,792.564263 C463.111179,788.202734 467.261615,785.710431 471.41205,785.918123 C476.185051,786.541199 479.920443,789.864269 480.958052,793.810415 C481.995661,798.587328 479.920443,803.156549 476.392573,805.44116 C472.242137,807.725771 467.261615,807.310387 463.941267,804.610393 C460.620918,801.287323 459.375788,796.510409 461.035962,792.564263 Z" id="P3"></path>
                    <path d="M467.88418,807.933463 C467.261615,803.779625 468.921789,800.041171 471.827094,798.171944 C475.354964,796.095025 479.5054,796.510409 482.203183,798.79502 C485.316009,801.495014 486.146096,805.648852 484.900966,808.971922 C483.03327,812.710376 479.5054,814.787295 475.977529,814.579603 C472.034616,813.956528 468.921789,811.256533 467.88418,807.933463 Z" id="P4"></path>
                    <path d="M495.277054,36.9811855 C494.654489,32.8273478 496.314663,29.0888938 499.219968,27.2196669 C502.747838,25.142748 506.898274,25.5581318 509.596057,27.8427425 C512.708883,30.542737 513.53897,34.6965747 512.29384,38.0196449 C510.426144,41.7580988 506.898274,43.8350177 503.370403,43.6273258 C499.42749,43.0042501 496.314663,40.3042556 495.277054,36.9811855 Z" id="P4"></path>
                    <path d="M523.500015,45.081169 C525.575233,40.7196394 529.725669,38.2273368 533.876104,38.4350287 C538.649105,39.0581043 542.384497,42.3811745 543.422106,46.3273203 C544.459714,51.1042336 542.384497,55.6734551 538.856627,57.9580659 C534.706191,60.2426766 529.725669,59.8272928 526.40532,57.1272983 C523.084972,53.8042281 521.839841,49.0273148 523.500015,45.081169 Z" id="P3"></path>
                    <path d="M516.651797,77.2734112 C519.972145,74.7811085 524.122581,74.7811085 527.027885,76.6503355 C530.348234,78.9349462 531.800886,82.8810921 530.970799,86.4118541 C529.518147,90.150308 526.40532,92.8503025 522.87745,93.0579944 C518.727015,93.0579944 515.199144,90.5656918 513.954014,87.4503135 C512.708883,83.5041677 513.954014,79.5580219 516.651797,77.2734112 Z" id="P0"></path>
                    <path d="M517.481884,132.311761 C519.557102,127.950231 523.707537,125.457928 527.857973,125.66562 C532.630973,126.288696 536.366365,129.611766 537.403974,133.557912 C538.441583,138.334825 536.366365,142.904047 532.838495,145.188658 C528.68806,147.473268 523.707537,147.057885 520.387189,144.35789 C517.06684,141.03482 515.82171,136.257907 517.481884,132.311761 Z" id="P3"></path>
                    <path d="M509.181013,719.45672 C512.501361,716.964417 516.651797,716.964417 519.557102,718.833644 C522.87745,721.118255 524.330102,725.064401 523.500015,728.595163 C522.047363,732.333617 518.934536,735.033611 515.406666,735.241303 C511.256231,735.241303 507.728361,732.749 506.48323,729.633622 C505.238099,725.687476 506.48323,721.741331 509.181013,719.45672 Z" id="P0"></path>
                    <path d="M531.178321,741.887443 C534.498669,739.395141 538.649105,739.395141 541.55441,741.264368 C544.874758,743.548978 546.32741,747.495124 545.497323,751.025886 C544.044671,754.76434 540.931844,757.464335 537.403974,757.672027 C533.253539,757.672027 529.725669,755.179724 528.480538,752.064346 C527.235407,748.1182 528.480538,744.172054 531.178321,741.887443 Z" id="P0"></path>
                    <path d="M518.104449,781.348902 C523.915059,777.195064 531.178321,776.987372 536.366365,780.310442 C542.176975,784.46428 544.667236,791.318112 543.214584,797.341177 C540.931844,803.987317 535.121235,808.556539 529.103103,808.971922 C521.839841,808.971922 516.029232,804.818085 513.53897,799.210404 C511.463753,792.356571 513.53897,785.295047 518.104449,781.348902 Z" id="P2"></path>
                    <path d="M523.292494,797.548869 C525.367711,793.187339 529.518147,790.695036 533.668582,790.902728 C538.441583,791.525804 542.176975,794.848874 543.214584,798.79502 C544.252193,803.571933 542.176975,808.141155 538.649105,810.425765 C534.498669,812.710376 529.518147,812.294992 526.197798,809.594998 C522.87745,806.271928 521.632319,801.495014 523.292494,797.548869 Z" id="P3"></path>
                    <path d="M539.894235,21.4042941 C543.214584,18.9119915 547.365019,18.9119915 550.270324,20.7812184 C553.590672,23.0658292 555.043325,27.011975 554.213238,30.542737 C552.760585,34.281191 549.647759,36.9811855 546.119889,37.1888773 C541.969453,37.1888773 538.441583,34.6965747 537.196452,31.5811964 C535.951322,27.6350506 537.196452,23.6889048 539.894235,21.4042941 Z" id="P0"></path>
                    <path d="M558.778717,88.0733892 C552.553064,84.5426271 549.025193,77.6887949 549.85528,71.4580384 C551.100411,64.3965143 556.495977,58.9965253 562.72163,57.750374 C569.777371,56.9196064 576.625589,60.4503685 579.530894,65.8503575 C582.643721,72.4964978 581.606112,79.7657138 577.248154,84.5426271 C571.852588,89.5272324 564.589326,90.5656918 558.778717,88.0733892 Z" id="P1"></path>
                    <path d="M583.058764,104.273356 C576.833111,100.742594 573.305241,93.888762 574.135328,87.6580054 C575.380459,80.5964813 580.776025,75.1964923 587.001678,73.950341 C594.057418,73.1195735 600.905637,76.6503355 603.810941,82.0503245 C606.923768,88.6964648 605.886159,95.9656808 601.528202,100.742594 C596.132636,105.727199 588.869374,106.765659 583.058764,104.273356 Z" id="P1"></path>
                    <path d="M567.494631,151.00403 C561.268978,147.473268 557.741108,140.619436 558.571195,134.38868 C559.816326,127.327155 565.211892,121.927166 571.437545,120.681015 C578.493285,119.850248 585.341504,123.38101 588.246808,128.780999 C591.359635,135.427139 590.322026,142.696355 585.964069,147.473268 C580.568503,152.457874 573.305241,153.496333 567.494631,151.00403 Z" id="P1"></path>
                    <path d="M606.923768,183.611656 C611.696769,183.611656 615.847204,186.519343 617.299857,190.257797 C618.752509,194.827018 617.507378,199.603931 614.394552,202.303926 C610.451638,205.211612 605.471116,205.419304 601.943245,203.134694 C598.000332,200.227007 596.340158,195.657786 597.377766,191.503948 C598.830419,186.934726 602.773333,184.02704 606.923768,183.611656 Z" id="P5"></path>
                    <path d="M586.586634,201.265467 C592.397244,197.111629 599.660506,196.903937 604.84855,200.227007 C610.65916,204.380845 613.149421,211.234677 611.696769,217.257742 C609.414029,223.903882 603.60342,228.473103 597.585288,228.888487 C590.322026,228.888487 584.511417,224.73465 582.021155,219.126969 C579.945938,212.273136 582.021155,205.211612 586.586634,201.265467 Z" id="P2"></path>
                    <path d="M591.567157,652.787625 C590.944591,648.633787 592.604766,644.895333 595.51007,643.026106 C599.037941,640.949187 603.188376,641.364571 605.886159,643.649182 C608.998986,646.349176 609.829073,650.503014 608.583942,653.826084 C606.716246,657.564538 603.188376,659.641457 599.660506,659.433765 C595.717592,658.810689 592.604766,656.110695 591.567157,652.787625 Z" id="P4"></path>
                    <path d="M570.192414,702.218293 C569.569849,698.064456 571.230023,694.326002 574.135328,692.456775 C577.663198,690.379856 581.813633,690.79524 584.511417,693.07985 C587.624243,695.779845 588.45433,699.933683 587.2092,703.256753 C585.341504,706.995207 581.813633,709.072126 578.285763,708.864434 C574.34285,708.241358 571.230023,705.541364 570.192414,702.218293 Z" id="P4"></path>
                    <path d="M557.326064,731.295157 C556.703499,727.14132 558.363673,723.402866 561.268978,721.533639 C564.796848,719.45672 568.947284,719.872104 571.645067,722.156714 C574.757893,724.856709 575.58798,729.010547 574.34285,732.333617 C572.475154,736.072071 568.947284,738.148989 565.419413,737.941298 C561.4765,737.318222 558.363673,734.618227 557.326064,731.295157 Z" id="P4"></path>
                    <path d="M543.629627,764.110475 C545.704845,759.748946 549.85528,757.256643 554.005716,757.464335 C558.778717,758.08741 562.514109,761.410481 563.551717,765.356626 C564.589326,770.13354 562.514109,774.702761 558.986238,776.987372 C554.835803,779.271983 549.85528,778.856599 546.534932,776.156604 C543.214584,772.833534 541.969453,768.056621 543.629627,764.110475 Z" id="P3"></path>
                    <path d="M578.700807,48.611931 C584.511417,44.4580933 591.774679,44.2504014 596.962723,47.5734716 C602.773333,51.7273093 605.263594,58.5811415 603.810941,64.6042062 C601.528202,71.2503465 595.717592,75.819568 589.699461,76.2349517 C582.436199,76.2349517 576.625589,72.081114 574.135328,66.4734331 C572.06011,59.6196009 574.135328,52.5580768 578.700807,48.611931 Z" id="P2"></path>
                    <path d="M597.79281,80.3887894 C603.60342,76.2349517 610.866682,76.0272599 616.054726,79.35033 C621.865336,83.5041677 624.355597,90.3579999 622.902944,96.3810646 C620.620205,103.027205 614.809595,107.596426 608.791464,108.01181 C601.528202,108.01181 595.717592,103.857972 593.227331,98.2502916 C591.152113,91.3964593 593.227331,84.3349353 597.79281,80.3887894 Z" id="P2"></path>
                    <path d="M625.600728,119.227172 C630.373728,119.227172 634.524164,122.134858 635.976816,125.873312 C637.429469,130.442534 636.184338,135.219447 633.071511,137.919442 C629.128598,140.827128 624.148075,141.03482 620.620205,138.750209 C616.677291,135.842523 615.017117,131.273301 616.054726,127.119464 C617.507378,122.550242 621.450292,119.642556 625.600728,119.227172 Z" id="P5"></path>
                    <path d="M632.656468,197.942396 C626.430815,194.411634 622.902944,187.557802 623.733032,181.327046 C624.978162,174.265521 630.373728,168.865532 636.599381,167.619381 C643.655122,166.788614 650.50334,170.319376 653.408645,175.719365 C656.521472,182.365505 655.483863,189.634721 651.125906,194.411634 C645.730339,199.39624 638.467077,200.434699 632.656468,197.942396 Z" id="P1"></path>
                    <path d="M651.125906,254.019205 C644.900252,250.488443 641.372382,243.634611 642.202469,237.403855 C643.4476,230.34233 648.843166,224.942341 655.068819,223.69619 C662.12456,222.865423 668.972778,226.396185 671.878083,231.796174 C674.990909,238.442314 673.953301,245.71153 669.595343,250.488443 C664.199777,255.473049 656.936515,256.511508 651.125906,254.019205 Z" id="P1"></path>
                    <path d="M656.936515,287.042215 C660.256864,284.549912 664.407299,284.549912 667.312604,286.419139 C670.632952,288.70375 672.085605,292.649896 671.255518,296.180658 C669.802865,299.919112 666.690039,302.619106 663.162168,302.826798 C659.011733,302.826798 655.483863,300.334496 654.238732,297.219117 C652.993602,293.272972 654.238732,289.326826 656.936515,287.042215 Z" id="P0"></path>
                    <path d="M599.660506,680.410645 C599.037941,676.256808 600.698115,672.518354 603.60342,670.649127 C607.13129,668.572208 611.281725,668.987592 613.979508,671.272202 C617.092335,673.972197 617.922422,678.126035 616.677291,681.449105 C614.809595,685.187559 611.281725,687.264478 607.753855,687.056786 C603.810941,686.43371 600.698115,683.733716 599.660506,680.410645 Z" id="P4"></path>
                    <path d="M613.564465,687.47217 C618.337465,687.47217 622.487901,690.379856 623.940553,694.11831 C625.393206,698.687531 624.148075,703.464445 621.035249,706.164439 C617.092335,709.072126 612.111812,709.279817 608.583942,706.995207 C604.641028,704.08752 602.980854,699.518299 604.018463,695.364461 C605.471116,690.79524 609.414029,687.887553 613.564465,687.47217 Z" id="P5"></path>
                    <path d="M624.77064,720.287487 C624.148075,716.13365 625.808249,712.395196 628.713554,710.525969 C632.241424,708.44905 636.39186,708.864434 639.089643,711.149044 C642.202469,713.849039 643.032556,718.002877 641.787426,721.325947 C639.91973,725.064401 636.39186,727.14132 632.86399,726.933628 C628.921076,726.310552 625.808249,723.610558 624.77064,720.287487 Z" id="P4"></path>
                    <path d="M588.246808,769.510464 C593.019809,769.510464 597.170245,772.41815 598.622897,776.156604 C600.075549,780.725826 598.830419,785.502739 595.717592,788.202734 C591.774679,791.11042 586.794156,791.318112 583.266286,789.033501 C579.323372,786.125815 577.663198,781.556593 578.700807,777.402756 C580.153459,772.833534 584.096373,769.925848 588.246808,769.510464 Z" id="P5"></path>
                    <path d="M627.05338,94.7195295 C620.827727,91.1887675 617.299857,84.3349353 618.129944,78.1041787 C619.375074,71.0426546 624.77064,65.6426656 630.996294,64.3965143 C638.052034,63.5657467 644.900252,67.0965088 647.805557,72.4964978 C650.918384,79.1426381 649.880775,86.4118541 645.522818,91.1887675 C640.127252,96.1733727 632.86399,97.2118321 627.05338,94.7195295 Z" id="P1"></path>
                    <path d="M648.428123,103.857972 C647.805557,99.7041348 649.465731,95.9656808 652.371036,94.0964539 C655.898906,92.019535 660.049342,92.4349188 662.747125,94.7195295 C665.859951,97.419524 666.690039,101.573362 665.444908,104.896432 C663.577212,108.634886 660.049342,110.711805 656.521472,110.504113 C652.578558,109.881037 649.465731,107.181043 648.428123,103.857972 Z" id="P4"></path>
                    <path d="M678.311258,171.357835 C672.085605,167.827073 668.557734,160.973241 669.387822,154.742484 C670.632952,147.68096 676.028518,142.280971 682.254171,141.03482 C689.309912,140.204052 696.15813,143.734814 699.063435,149.134803 C702.176262,155.780944 701.138653,163.05016 696.780696,167.827073 C691.385129,172.811678 684.121867,173.850138 678.311258,171.357835 Z" id="P1"></path>
                    <path d="M697.403261,197.319321 C702.176262,197.319321 706.326697,200.227007 707.77935,203.965461 C709.232002,208.534683 707.986871,213.311596 704.874045,216.01159 C700.931131,218.919277 695.950608,219.126969 692.422738,216.842358 C688.479825,213.934672 686.81965,209.36545 687.857259,205.211612 C689.309912,200.642391 693.252825,197.734705 697.403261,197.319321 Z" id="P5"></path>
                    <path d="M676.651084,250.07306 C678.726301,245.71153 682.876737,243.219227 687.027172,243.426919 C691.800173,244.049995 695.535565,247.373065 696.573174,251.319211 C697.610783,256.096124 695.535565,260.665346 692.007695,262.949956 C687.857259,265.234567 682.876737,264.819183 679.556388,262.119189 C676.23604,258.796119 674.990909,254.019205 676.651084,250.07306 Z" id="P3"></path>
                    <path d="M675.405953,301.580647 C674.783388,297.426809 676.443562,293.688355 679.348867,291.819128 C682.876737,289.74221 687.027172,290.157593 689.724955,292.442204 C692.837782,295.142199 693.667869,299.296036 692.422738,302.619106 C690.555042,306.35756 687.027172,308.434479 683.499302,308.226787 C679.556388,307.603712 676.443562,304.903717 675.405953,301.580647 Z" id="P4"></path>
                    <path d="M671.255518,359.942067 C665.029864,356.411305 661.501994,349.557472 662.332081,343.326716 C663.577212,336.265192 668.972778,330.865203 675.198431,329.619052 C682.254171,328.788284 689.10239,332.319046 692.007695,337.719035 C695.120521,344.365175 694.082913,351.634391 689.724955,356.411305 C684.329389,361.39591 677.066127,362.434369 671.255518,359.942067 Z" id="P1"></path>
                    <path d="M693.252825,374.688191 C692.63026,370.534353 694.290434,366.795899 697.195739,364.926672 C700.723609,362.849753 704.874045,363.265137 707.571828,365.549748 C710.684654,368.249742 711.514741,372.40358 710.269611,375.72665 C708.401915,379.465104 704.874045,381.542023 701.346175,381.334331 C697.403261,380.711255 694.290434,378.011261 693.252825,374.688191 Z" id="P4"></path>
                    <path d="M691.177608,463.164934 C694.497956,460.672631 698.648392,460.672631 701.553696,462.541858 C704.874045,464.826469 706.326697,468.772615 705.49661,472.303377 C704.043958,476.041831 700.931131,478.741825 697.403261,478.949517 C693.252825,478.949517 689.724955,476.457214 688.479825,473.341836 C687.234694,469.39569 688.479825,465.449544 691.177608,463.164934 Z" id="P0"></path>
                    <path d="M705.49661,494.111025 C704.874045,489.957187 706.534219,486.218733 709.439524,484.349506 C712.967394,482.272587 717.117829,482.687971 719.815612,484.972582 C722.928439,487.672576 723.758526,491.826414 722.513395,495.149484 C720.645699,498.887938 717.117829,500.964857 713.589959,500.757165 C709.647045,500.134089 706.534219,497.434095 705.49661,494.111025 Z" id="P4"></path>
                    <path d="M685.989563,520.903278 C691.800173,516.74944 699.063435,516.541748 704.251479,519.864818 C710.062089,524.018656 712.55235,530.872488 711.099698,536.895553 C708.816958,543.541693 703.006349,548.110915 696.988217,548.526298 C689.724955,548.526298 683.914346,544.372461 681.424084,538.76478 C679.348867,531.910948 681.424084,524.849423 685.989563,520.903278 Z" id="P2"></path>
                    <path d="M667.727647,618.310772 C669.802865,613.949242 673.953301,611.45694 678.103736,611.664631 C682.876737,612.287707 686.612129,615.610777 687.649738,619.556923 C688.687346,624.333836 686.612129,628.903058 683.084259,631.187669 C678.933823,633.472279 673.953301,633.056896 670.632952,630.356901 C667.312604,627.033831 666.067473,622.256918 667.727647,618.310772 Z" id="P3"></path>
                    <path d="M652.78608,646.141484 C652.163514,641.987647 653.823689,638.249193 656.728993,636.379966 C660.256864,634.303047 664.407299,634.718431 667.105082,637.003041 C670.217909,639.703036 671.047996,643.856874 669.802865,647.179944 C667.935169,650.918398 664.407299,652.995317 660.879429,652.787625 C656.936515,652.164549 653.823689,649.464555 652.78608,646.141484 Z" id="P4"></path>
                    <path d="M648.220601,700.972142 C652.993602,700.972142 657.144037,703.879828 658.596689,707.618282 C660.049342,712.187504 658.804211,716.964417 655.691385,719.664412 C651.748471,722.572098 646.767948,722.77979 643.240078,720.495179 C639.297165,717.587493 637.63699,713.018271 638.674599,708.864434 C640.127252,704.295212 644.070165,701.387526 648.220601,700.972142 Z" id="P5"></path>
                    <path d="M639.089643,726.518244 C644.900252,722.364406 652.163514,722.156714 657.351559,725.479784 C663.162168,729.633622 665.65243,736.487454 664.199777,742.510519 C661.917038,749.156659 656.106428,753.725881 650.088297,754.141265 C642.825035,754.141265 637.014425,749.987427 634.524164,744.379746 C632.448946,737.525914 634.524164,730.46439 639.089643,726.518244 Z" id="P2"></path>
                    <path d="M661.086951,729.010547 C665.859951,729.010547 670.010387,731.918233 671.463039,735.656687 C672.915692,740.225908 671.670561,745.002822 668.557734,747.702816 C664.614821,750.610503 659.634298,750.818194 656.106428,748.533584 C652.163514,745.625897 650.50334,741.056676 651.540949,736.902838 C652.993602,732.333617 656.936515,729.42593 661.086951,729.010547 Z" id="P5"></path>
                    <path d="M687.442216,116.942561 C689.517434,112.581032 693.667869,110.088729 697.818304,110.296421 C702.591305,110.919497 706.326697,114.242567 707.364306,118.188713 C708.401915,122.965626 706.326697,127.534847 702.798827,129.819458 C698.648392,132.104069 693.667869,131.688685 690.347521,128.988691 C687.027172,125.66562 685.782042,120.888707 687.442216,116.942561 Z" id="P3"></path>
                    <path d="M708.816958,149.757879 C710.892176,145.396349 715.042612,142.904047 719.193047,143.111739 C723.966048,143.734814 727.70144,147.057885 728.739049,151.00403 C729.776657,155.780944 727.70144,160.350165 724.17357,162.634776 C720.023134,164.919387 715.042612,164.504003 711.722263,161.804008 C708.401915,158.480938 707.156784,153.704025 708.816958,149.757879 Z" id="P3"></path>
                    <path d="M710.892176,192.127024 C712.967394,187.765494 717.117829,185.273191 721.268265,185.480883 C726.041266,186.103959 729.776657,189.427029 730.814266,193.373175 C731.851875,198.150088 729.776657,202.71931 726.248787,205.00392 C722.098352,207.288531 717.117829,206.873147 713.797481,204.173153 C710.477133,200.850083 709.232002,196.073169 710.892176,192.127024 Z" id="P3"></path>
                    <path d="M717.117829,272.711475 C710.892176,269.180713 707.364306,262.326881 708.194393,256.096124 C709.439524,249.0346 714.83509,243.634611 721.060743,242.38846 C728.116483,241.557692 734.964702,245.088454 737.870007,250.488443 C740.982833,257.134584 739.945224,264.4038 735.587267,269.180713 C730.191701,274.165318 722.928439,275.203778 717.117829,272.711475 Z" id="P1"></path>
                    <path d="M745.963356,271.465324 C750.736357,271.465324 754.886792,274.37301 756.339444,278.111464 C757.792097,282.680685 756.546966,287.457599 753.43414,290.157593 C749.491226,293.06528 744.510703,293.272972 740.982833,290.988361 C737.03992,288.080675 735.379745,283.511453 736.417354,279.357615 C737.870007,274.788394 741.81292,271.880707 745.963356,271.465324 Z" id="P5"></path>
                    <path d="M732.059397,349.972856 C731.436832,345.819019 733.097006,342.080565 736.002311,340.211338 C739.530181,338.134419 743.680616,338.549803 746.378399,340.834413 C749.491226,343.534408 750.321313,347.688246 749.076182,351.011316 C747.208486,354.74977 743.680616,356.826688 740.152746,356.618997 C736.209832,355.995921 733.097006,353.295926 732.059397,349.972856 Z" id="P4"></path>
                    <path d="M727.493918,382.788174 C729.569136,378.426645 733.719571,375.934342 737.870007,376.142034 C742.643007,376.765109 746.378399,380.08818 747.416008,384.034325 C748.453617,388.811239 746.378399,393.38046 742.850529,395.665071 C738.700094,397.949682 733.719571,397.534298 730.399223,394.834303 C727.078874,391.511233 725.833744,386.73432 727.493918,382.788174 Z" id="P3"></path>
                    <path d="M737.247441,456.311101 C736.624876,452.157264 738.28505,448.41881 741.190355,446.549583 C744.718225,444.472664 748.868661,444.888048 751.566444,447.172658 C754.67927,449.872653 755.509357,454.026491 754.264227,457.349561 C752.396531,461.088015 748.868661,463.164934 745.34079,462.957242 C741.397877,462.334166 738.28505,459.634172 737.247441,456.311101 Z" id="P4"></path>
                    <path d="M729.984179,488.503344 C732.059397,484.141814 736.209832,481.649511 740.360268,481.857203 C745.133269,482.480279 748.868661,485.803349 749.906269,489.749495 C750.943878,494.526408 748.868661,499.09563 745.34079,501.38024 C741.190355,503.664851 736.209832,503.249467 732.889484,500.549473 C729.569136,497.226403 728.324005,492.449489 729.984179,488.503344 Z" id="P3"></path>
                    <path d="M713.174916,543.541693 C706.949262,540.010931 703.421392,533.157099 704.251479,526.926342 C705.49661,519.864818 710.892176,514.464829 717.117829,513.218678 C724.17357,512.38791 731.021788,515.918672 733.927093,521.318661 C737.03992,527.964802 736.002311,535.234018 731.644353,540.010931 C726.248787,544.995536 718.985525,546.033996 713.174916,543.541693 Z" id="P1"></path>
                    <path d="M716.287742,596.918508 C719.608091,594.426205 723.758526,594.426205 726.663831,596.295432 C729.984179,598.580043 731.436832,602.526189 730.606745,606.056951 C729.154092,609.795404 726.041266,612.495399 722.513395,612.703091 C718.36296,612.703091 714.83509,610.210788 713.589959,607.09541 C712.344829,603.149264 713.589959,599.203118 716.287742,596.918508 Z" id="P0"></path>
                    <path d="M694.497956,659.226073 C693.875391,655.072235 695.535565,651.333782 698.44087,649.464555 C701.96874,647.387636 706.119175,647.803019 708.816958,650.08763 C711.929785,652.787625 712.759872,656.941462 711.514741,660.264533 C709.647045,664.002986 706.119175,666.079905 702.591305,665.872213 C698.648392,665.249138 695.535565,662.549143 694.497956,659.226073 Z" id="P4"></path>
                    <path d="M682.669215,688.926013 C688.479825,684.772175 695.743087,684.564483 700.931131,687.887553 C706.741741,692.041391 709.232002,698.895223 707.77935,704.918288 C705.49661,711.564428 699.686,716.13365 693.667869,716.549033 C686.404607,716.549033 680.593997,712.395196 678.103736,706.787515 C676.028518,699.933683 678.103736,692.872159 682.669215,688.926013 Z" id="P2"></path>
                    <path d="M689.309912,705.333672 C692.63026,702.841369 696.780696,702.841369 699.686,704.710596 C703.006349,706.995207 704.459001,710.941353 703.628914,714.472115 C702.176262,718.210568 699.063435,720.910563 695.535565,721.118255 C691.385129,721.118255 687.857259,718.625952 686.612129,715.510574 C685.366998,711.564428 686.612129,707.618282 689.309912,705.333672 Z" id="P0"></path>
                    <path d="M731.851875,189.011645 C725.626222,185.480883 722.098352,178.627051 722.928439,172.396295 C724.17357,165.33477 729.569136,159.934781 735.794789,158.68863 C742.850529,157.857863 749.698748,161.388625 752.604052,166.788614 C755.716879,173.434754 754.67927,180.70397 750.321313,185.480883 C744.925747,190.465489 737.662485,191.503948 731.851875,189.011645 Z" id="P1"></path>
                    <path d="M759.452271,221.411579 C762.772619,218.919277 766.923055,218.919277 769.82836,220.788504 C773.148708,223.073114 774.60136,227.01926 773.771273,230.550022 C772.318621,234.288476 769.205794,236.988471 765.677924,237.196163 C761.527489,237.196163 757.999619,234.70386 756.754488,231.588482 C755.509357,227.642336 756.754488,223.69619 759.452271,221.411579 Z" id="P0"></path>
                    <path d="M750.113791,290.988361 C743.888138,287.457599 740.360268,280.603767 741.190355,274.37301 C742.435486,267.311486 747.831052,261.911497 754.056705,260.665346 C761.112445,259.834578 767.960664,263.36534 770.865968,268.765329 C773.978795,275.41147 772.941186,282.680685 768.583229,287.457599 C763.187663,292.442204 755.924401,293.480664 750.113791,290.988361 Z" id="P1"></path>
                    <path d="M756.754488,294.934507 C762.565098,290.780669 769.82836,290.572977 775.016404,293.896047 C780.827014,298.049885 783.317275,304.903717 781.864622,310.926782 C779.581883,317.572922 773.771273,322.142144 767.753142,322.557527 C760.48988,322.557527 754.67927,318.40369 752.189009,312.796009 C750.113791,305.942177 752.189009,298.880653 756.754488,294.934507 Z" id="P2"></path>
                    <path d="M758.622184,320.065225 C764.432794,315.911387 771.696056,315.703695 776.8841,319.026765 C782.69471,323.180603 785.184971,330.034435 783.732318,336.0575 C781.449579,342.70364 775.638969,347.272862 769.620838,347.688246 C762.357576,347.688246 756.546966,343.534408 754.056705,337.926727 C751.981487,331.072895 754.056705,324.011371 758.622184,320.065225 Z" id="P2"></path>
                    <path d="M761.112445,432.841918 C754.886792,429.311156 751.358922,422.457324 752.189009,416.226568 C753.43414,409.165044 758.829706,403.765054 765.055359,402.518903 C772.111099,401.688136 778.959318,405.218898 781.864622,410.618887 C784.977449,417.265027 783.93984,424.534243 779.581883,429.311156 C774.186317,434.295762 766.923055,435.334221 761.112445,432.841918 Z" id="P1"></path>
                    <path d="M756.131923,438.034216 C759.452271,435.541913 763.602706,435.541913 766.508011,437.41114 C769.82836,439.695751 771.281012,443.641896 770.450925,447.172658 C768.998273,450.911112 765.885446,453.611107 762.357576,453.818799 C758.20714,453.818799 754.67927,451.326496 753.43414,448.211118 C752.189009,444.264972 753.43414,440.318826 756.131923,438.034216 Z" id="P0"></path>
                    <path d="M770.243403,472.926452 C773.563752,470.43415 777.714187,470.43415 780.619492,472.303377 C783.93984,474.587987 785.392493,478.534133 784.562405,482.064895 C783.109753,485.803349 779.996926,488.503344 776.469056,488.711035 C772.318621,488.711035 768.790751,486.218733 767.54562,483.103355 C766.300489,479.157209 767.54562,475.211063 770.243403,472.926452 Z" id="P0"></path>
                    <path d="M760.48988,513.841754 C765.262881,513.841754 769.413316,516.74944 770.865968,520.487894 C772.318621,525.057115 771.07349,529.834029 767.960664,532.534023 C764.01775,535.44171 759.037227,535.649402 755.509357,533.364791 C751.566444,530.457104 749.906269,525.887883 750.943878,521.734045 C752.396531,517.164824 756.339444,514.257137 760.48988,513.841754 Z" id="P5"></path>
                    <path d="M754.67927,600.656962 C754.056705,596.503124 755.716879,592.76467 758.622184,590.895443 C762.150054,588.818524 766.300489,589.233908 768.998273,591.518519 C772.111099,594.218513 772.941186,598.372351 771.696056,601.695421 C769.82836,605.433875 766.300489,607.510794 762.772619,607.303102 C758.829706,606.680026 755.716879,603.980032 754.67927,600.656962 Z" id="P4"></path>
                    <path d="M754.264227,612.910783 C759.037227,612.910783 763.187663,615.818469 764.640315,619.556923 C766.092968,624.126145 764.847837,628.903058 761.73501,631.603052 C757.792097,634.510739 752.811574,634.718431 749.283704,632.43382 C745.34079,629.526134 743.680616,624.956912 744.718225,620.803074 C746.170878,616.233853 750.113791,613.326167 754.264227,612.910783 Z" id="P5"></path>
                    <path d="M726.871353,685.810634 C720.645699,682.279872 717.117829,675.42604 717.947916,669.195284 C719.193047,662.13376 724.588613,656.733771 730.814266,655.487619 C737.870007,654.656852 744.718225,658.187614 747.62353,663.587603 C750.736357,670.233743 749.698748,677.502959 745.34079,682.279872 C739.945224,687.264478 732.681962,688.302937 726.871353,685.810634 Z" id="P1"></path>
                    <path d="M768.583229,195.657786 C773.35623,195.657786 777.506665,198.565472 778.959318,202.303926 C780.41197,206.873147 779.166839,211.650061 776.054013,214.350055 C772.111099,217.257742 767.130577,217.465434 763.602706,215.180823 C759.659793,212.273136 757.999619,207.703915 759.037227,203.550077 C760.48988,198.980856 764.432794,196.073169 768.583229,195.657786 Z" id="P5"></path>
                    <path d="M789.335406,272.711475 C792.655755,270.219172 796.80619,270.219172 799.711495,272.088399 C803.031843,274.37301 804.484496,278.319156 803.654409,281.849918 C802.201756,285.588372 799.08893,288.288366 795.561059,288.496058 C791.410624,288.496058 787.882754,286.003756 786.637623,282.888377 C785.392493,278.942232 786.637623,274.996086 789.335406,272.711475 Z" id="P0"></path>
                    <path d="M786.637623,282.680685 C791.410624,282.680685 795.561059,285.588372 797.013712,289.326826 C798.466364,293.896047 797.221234,298.672961 794.108407,301.372955 C790.165493,304.280642 785.184971,304.488333 781.657101,302.203723 C777.714187,299.296036 776.054013,294.726815 777.091622,290.572977 C778.544274,286.003756 782.487188,283.096069 786.637623,282.680685 Z" id="P5"></path>
                    <path d="M797.843799,348.311321 C803.654409,344.157483 810.917671,343.949792 816.105715,347.272862 C821.916325,351.426699 824.406586,358.280532 822.953933,364.303596 C820.671194,370.949737 814.860584,375.518958 808.842453,375.934342 C801.579191,375.934342 795.768581,371.780504 793.27832,366.172823 C791.203102,359.318991 793.27832,352.257467 797.843799,348.311321 Z" id="P2"></path>
                    <path d="M792.240711,419.549638 C791.618146,415.3958 793.27832,411.657346 796.183625,409.788119 C799.711495,407.7112 803.86193,408.126584 806.559713,410.411195 C809.67254,413.111189 810.502627,417.265027 809.257496,420.588097 C807.3898,424.326551 803.86193,426.40347 800.33406,426.195778 C796.391147,425.572702 793.27832,422.872708 792.240711,419.549638 Z" id="P4"></path>
                    <path d="M804.069452,466.903388 C803.446887,462.74955 805.107061,459.011096 808.012366,457.141869 C811.540236,455.06495 815.690671,455.480334 818.388454,457.764945 C821.501281,460.464939 822.331368,464.618777 821.086237,467.941847 C819.218542,471.680301 815.690671,473.75722 812.162801,473.549528 C808.219888,472.926452 805.107061,470.226458 804.069452,466.903388 Z" id="P4"></path>
                    <path d="M797.013712,484.141814 C799.08893,479.780284 803.239365,477.287982 807.3898,477.495674 C812.162801,478.118749 815.898193,481.44182 816.935802,485.387965 C817.973411,490.164879 815.898193,494.7341 812.370323,497.018711 C808.219888,499.303322 803.239365,498.887938 799.919017,496.187943 C796.598668,492.864873 795.353538,488.08796 797.013712,484.141814 Z" id="P3"></path>
                    <path d="M786.845145,514.464829 C791.618146,514.464829 795.768581,517.372516 797.221234,521.11097 C798.673886,525.680191 797.428755,530.457104 794.315929,533.157099 C790.373015,536.064785 785.392493,536.272477 781.864622,533.987866 C777.921709,531.08018 776.261535,526.510959 777.299143,522.357121 C778.751796,517.787899 782.69471,514.880213 786.845145,514.464829 Z" id="P5"></path>
                    <path d="M789.335406,560.364736 C792.655755,557.872433 796.80619,557.872433 799.711495,559.74166 C803.031843,562.026271 804.484496,565.972417 803.654409,569.503179 C802.201756,573.241633 799.08893,575.941627 795.561059,576.149319 C791.410624,576.149319 787.882754,573.657016 786.637623,570.541638 C785.392493,566.595492 786.637623,562.649347 789.335406,560.364736 Z" id="P0"></path>
                    <path d="M772.733664,603.564648 C774.808882,599.203118 778.959318,596.710816 783.109753,596.918508 C787.882754,597.541583 791.618146,600.864653 792.655755,604.810799 C793.693363,609.587713 791.618146,614.156934 788.090276,616.441545 C783.93984,618.726156 778.959318,618.310772 775.638969,615.610777 C772.318621,612.287707 771.07349,607.510794 772.733664,603.564648 Z" id="P3"></path>
                    <path d="M804.484496,503.041776 C810.295105,498.887938 817.558367,498.680246 822.746412,502.003316 C828.557021,506.157154 831.047283,513.010986 829.59463,519.034051 C827.311891,525.680191 821.501281,530.249413 815.48315,530.664796 C808.219888,530.664796 802.409278,526.510959 799.919017,520.903278 C797.843799,514.049445 799.919017,506.987921 804.484496,503.041776 Z" id="P2"></path>
                </g>
            </g>
        </g>
    </g>
</svg>