<?xml version="1.0" encoding="UTF-8"?>
<svg width="512px" height="640px" viewBox="0 0 512 640" version="1.1" xmlns="http://www.w3.org/2000/svg" xmlns:xlink="http://www.w3.org/1999/xlink">
    <title>globe-dark</title>
    <g id="globe-dark" stroke="none" stroke-width="1" fill="none" fill-rule="evenodd" stroke-linecap="round" stroke-linejoin="round">
        <path d="M340,466.237094 C367.666667,457.903761 395.166667,441.903761 422.5,418.237094 C444.274887,399.383229 462.347714,375.558027 476.718481,346.761487 C477.326432,345.543245 476.831699,344.062821 475.61346,343.454865 C474.524806,342.911577 473.202595,343.243771 472.5,344.237094 L458.625407,363.852899 C458.208483,364.442342 457.784636,365.026857 457.353952,365.606322 L433.942955,397.104756 C431.704351,400.116694 428.576091,402.349247 425,403.487094 L421.95214,404.456868 C420.3177,404.976917 418.698122,405.542572 417.095306,406.153168 L409,409.237094 L409,409.237094 L405.555465,407.400009 C402.866625,405.965961 400.404804,404.141898 398.25,401.987094 C396.16906,399.906154 395,397.083794 395,394.1409 L395,389.06165 C395,384.872678 394.324669,380.711102 393,376.737094 C391.701779,372.842431 391.701779,368.631758 393,364.737094 C394.331257,360.743324 395.975646,356.860852 397.917851,353.125843 L400.658921,347.854555 C401.219585,346.776354 401.801558,345.709367 402.404497,344.654224 L408.771236,333.512432 C410.559421,330.383107 411.5,326.841298 411.5,323.237094 L411.5,321.553179 C411.5,319.058131 412.192352,316.612022 413.5,314.487094 C414.807648,312.362166 415.5,309.916058 415.5,307.42101 L415.5,302.663729 C415.5,299.020171 417.522422,295.677731 420.75,293.987094 C424.216794,292.171155 427.296665,289.697305 429.817557,286.703745 L431.745525,284.414284 C433.201538,282.685268 434,280.497508 434,278.237094 C434,275.970576 434.766479,273.770665 436.174881,271.994853 L442.06121,264.57296 C444.336219,261.70447 446.092248,258.46035 447.25,254.987094 L447.473157,254.317624 C448.275957,251.909224 450.879149,250.607628 453.287548,251.410428 C453.358983,251.43424 453.429821,251.459803 453.5,251.487094 L454.737984,251.968533 C456.704604,252.733329 458,254.626998 458,256.737094 L458,258.737094 C458,259.565522 458.671573,260.237094 459.5,260.237094 C460.472184,260.237094 461.416633,259.913047 462.184028,259.316184 L469.363028,253.732517 C469.787668,253.402242 470.215196,253.075697 470.645564,252.752921 L474,250.237094 C476.518058,248.348551 478,245.384667 478,242.237094 L478,236.038635 C478,231.307598 479.584223,226.71281 482.5,222.987094 C485.453904,219.212661 487.426235,214.764929 488.240582,210.041717 L488.650465,207.664395 C489.215789,204.38552 489.5,201.064347 489.5,197.737094 C489.5,194.439814 488.814249,191.17857 487.486307,188.160519 L485.572745,183.811514 C484.538333,181.460579 482.973133,179.381372 481,177.737094 C480.223971,177.090404 479.070629,177.195253 478.423938,177.971282 C478.150013,178.299992 478,178.714335 478,179.142219 L478,181.85193 C478,185.409355 477.321195,188.934108 476,192.237094 L475.842974,192.62966 C475.222704,194.180335 473.462806,194.934577 471.912131,194.314307 C471.464332,194.135187 471.06587,193.851559 470.75,193.487094 C468.65388,191.068494 467.5,187.975259 467.5,184.774736 L467.5,177.737094 L467.5,169.667106 C467.5,166.72892 467.920943,163.805888 468.75,160.987094 C469.569664,158.200237 469.662002,155.249905 469.018216,152.417245 L468.271706,149.132602 C467.789406,147.010479 466.281183,145.268319 464.25,144.487094 C462.211735,143.703147 459.919773,143.957246 458.10272,145.168614 L457.25,145.737094 C455.120373,147.156846 454.411186,149.958224 455.608741,152.220273 L456.947253,154.748572 C457.297313,155.409796 457.045064,156.229604 456.38384,156.579664 C456.18856,156.683047 455.970957,156.737094 455.75,156.737094 C454.365765,156.737094 453.094919,157.502247 452.447253,158.725617 L451.046173,161.372101 C449.776147,163.77104 449.853462,166.65953 451.25,168.987094 C452.731503,171.456266 454.742825,173.565644 457.138734,175.162917 L457.25,175.237094 C459.592792,176.798956 461,179.428347 461,182.244034 L461,187.237094 L461,193.487094 C461,197.556792 462.24105,201.529722 464.557562,204.875796 L465.554328,206.315568 C465.888461,206.798204 465.768075,207.460326 465.285439,207.794459 C464.89274,208.066327 464.366921,208.042862 464,207.737094 L461.954661,206.032645 C459.57132,204.046528 456.211999,203.730429 453.5,205.237094 C450.595017,206.850974 447.210799,207.379254 443.952152,206.727525 L440.177178,205.97253 C438.51228,205.63955 436.89268,206.719284 436.5597,208.384182 C436.519997,208.582697 436.5,208.784648 436.5,208.987094 C436.5,211.058162 438.178932,212.737094 440.25,212.737094 L454.818019,212.737094 C455.545942,212.737094 456.136039,213.327192 456.136039,214.055114 C456.136039,214.404674 455.997177,214.739918 455.75,214.987094 C454.48528,216.251814 454.421902,218.281916 455.605267,219.623064 L459.708142,224.272989 C459.762858,224.335 459.756944,224.429626 459.694933,224.484342 C459.639533,224.533224 459.556759,224.534393 459.5,224.487094 C458.530784,223.679414 457.309075,223.237094 456.047438,223.237094 L450.243416,223.237094 C447.101688,223.237094 443.980505,222.730596 441,221.737094 L439.681981,221.297755 C437.644593,220.618625 435.420868,220.776661 433.5,221.737094 C431.661402,222.656394 430.5,224.535581 430.5,226.591196 L430.5,230.020104 C430.5,232.954481 428.988346,235.681878 426.5,237.237094 L426.009217,237.543834 C424.005649,238.796064 423.250847,241.346052 424.25,243.487094 L424.531272,244.08982 C425.451187,246.061068 425.346086,248.35809 424.25,250.237094 C423.103906,252.201828 422.5,254.435627 422.5,256.710205 L422.5,267.237094 L422.5,275.217892 C422.5,279.278252 420.425569,283.057187 417,285.237094 L412.554577,288.066 C411.86583,288.504294 411.066379,288.737094 410.25,288.737094 C409.449638,288.737094 408.682058,289.055037 408.116117,289.620978 L406.5,291.237094 C405.526986,292.210109 403.949418,292.210109 402.976404,291.237094 C402.774462,291.035153 402.608743,290.799996 402.486486,290.541899 L397.140432,279.255784 C395.731074,276.280472 395,273.029323 395,269.737094 C395,266.604679 396.53311,263.670583 399.104526,261.881772 L401.128714,260.473641 C404.700185,257.98914 408.007864,255.14546 411,251.987094 C413.693284,249.144184 414.288019,244.906362 412.481311,241.431923 L412.229469,240.947612 C410.245037,237.131397 406.301334,234.737094 402,234.737094 L398.605551,234.737094 C397.539845,234.737094 396.675919,233.873169 396.675919,232.807462 C396.675919,232.426504 396.788683,232.05407 397,231.737094 L398.16795,229.98517 C398.710488,229.171362 399,228.21517 399,227.237094 C399,226.242226 399.142531,225.252489 399.423249,224.298046 L400.77373,219.706413 C401.238363,218.126661 401.04969,216.426536 400.25,214.987094 C399.784506,214.149204 398.727904,213.847318 397.890013,214.312813 C397.695077,214.421111 397.522837,214.565962 397.382718,214.739443 L391.170433,222.430844 C390.649214,223.076163 389.703549,223.176766 389.05823,222.655547 C388.705188,222.370397 388.5,221.940911 388.5,221.487094 L388.5,219.737094 C388.5,218.356383 387.380712,217.237094 386,217.237094 C384.619288,217.237094 383.5,216.117806 383.5,214.737094 L383.5,208.987094 C383.5,206.916027 381.821068,205.237094 379.75,205.237094 C377.678932,205.237094 376,206.916027 376,208.987094 L376,212.737094 L376,216.487094 C376,218.949683 375.397636,221.374893 374.245421,223.551299 L372.786691,226.306678 C372.61019,226.640068 372.196841,226.767253 371.863451,226.590752 C371.63985,226.472375 371.5,226.240097 371.5,225.987094 C371.5,224.20204 370.921033,222.465138 369.85,221.037094 L369.1,220.037094 C367.736868,218.219585 367,216.008982 367,213.737094 L367,213.6005 C367,211.435205 367.801494,209.346546 369.25,207.737094 L369.660347,207.281153 C370.84468,205.965228 371.5,204.257491 371.5,202.487094 C371.5,200.851045 370.436756,199.404831 368.87518,198.916838 L367.5,198.487094 C365.120292,197.743436 363.5,195.539529 363.5,193.046331 L363.5,188.833289 C363.5,188.331127 363.907082,187.924046 364.409243,187.924046 C364.77769,187.924046 365.109714,188.1464 365.25,188.487094 L365.97039,190.236614 C366.436562,191.368744 367.732242,191.908611 368.864372,191.44244 C368.999362,191.386855 369.128532,191.318073 369.25,191.237094 C370.434875,190.447177 372.035761,190.767355 372.825678,191.95223 C372.848365,191.98626 372.870238,192.020825 372.891281,192.055895 L373.966277,193.847556 C375.278634,196.034818 377.330132,197.680472 379.75,198.487094 L379.974202,198.561829 C382.285917,199.3324 384.360857,200.684037 386,202.487094 L386.157688,202.660551 C387.569766,204.213837 389.790716,204.740665 391.75,203.987094 C392.982753,203.512959 394.36646,204.127939 394.840596,205.360693 C394.945965,205.634652 395,205.925668 395,206.219192 L395,206.987094 C395,208.78202 396.455075,210.237094 398.25,210.237094 C400.33094,210.237094 402.32665,209.410444 403.798097,207.938997 L404,207.737094 C405.516646,206.220449 405.983517,203.945887 405.186936,201.954434 L402.582781,195.444046 C401.958744,193.883955 402.559181,192.101586 404,191.237094 C405.214557,190.50836 405.608394,188.933011 404.87966,187.718454 C404.8234,187.624687 404.7612,187.534615 404.693442,187.448788 L402.75,184.987094 C400.270199,181.846014 398.375245,178.284735 397.15554,174.473158 L397,173.987094 C396.824962,173.440102 397.126491,172.85478 397.673484,172.679743 C398.102501,172.542457 398.571128,172.696994 398.834326,173.062547 L402.366819,177.968787 C403.308171,179.276221 405.05902,179.707584 406.5,178.987094 C408.162819,178.155685 409.741894,177.166407 411.215451,176.032901 L412.52766,175.02351 C414.40178,173.581879 415.5,171.351545 415.5,168.987094 L415.5,165.237094 L415.5,161.737094 L415.5,159.237094 C415.5,157.615625 414.966337,156.039227 413.981375,154.7512 L410.697875,150.457392 C409.658937,149.098781 409.485119,147.266856 410.25,145.737094 C410.96816,144.300774 410.525745,142.555116 409.210177,141.634218 L409,141.487094 C407.433159,140.390306 406.5,138.598029 406.5,136.685456 L406.5,136.237094 C406.5,133.984985 405.660578,131.813731 404.145645,130.147304 L402.689129,128.545136 C401.896488,127.673232 401.083215,126.82031 400.25,125.987094 C400.0546,125.791695 399.737794,125.791695 399.542395,125.987094 C399.419533,126.109956 399.369206,126.287761 399.409451,126.456789 L400.25,129.987094 C400.613752,131.514854 399.670138,133.048228 398.142378,133.411981 C397.584075,133.54491 396.998615,133.505793 396.462959,133.299771 L393.967247,132.339882 C390.38205,130.96096 387.209096,128.68801 384.75,125.737094 L383.263394,123.953167 C381.75524,122.143382 380.16581,120.402905 378.5,118.737094 L378.378287,118.615382 C377.132109,117.369203 375.111654,117.369203 373.865475,118.615382 C373.825923,118.654933 373.787418,118.695518 373.75,118.737094 C372.498164,120.128024 372.583195,122.26328 373.941674,123.550259 L378.970901,128.31479 C380.313297,129.586534 381.423034,131.083163 382.25,132.737094 C383.082864,134.402822 383.994354,136.028061 384.981392,137.607322 L386.777503,140.4811 C387.849045,142.195567 389.728219,143.237094 391.75,143.237094 L392.5,143.237094 C393.880712,143.237094 395,144.356383 395,145.737094 C395,147.366363 395.487879,148.958307 396.400773,150.307803 L404.933888,162.921972 C405.692258,164.04304 405.398232,165.566626 404.277164,166.324996 C404.188419,166.385029 404.095832,166.439178 404,166.487094 C402.483354,167.245417 400.660715,167.02693 399.36627,165.931631 L394.60709,161.904632 C393.042765,160.580972 390.70159,160.77607 389.37793,162.340396 C388.811061,163.010332 388.5,163.85951 388.5,164.737094 L388.5,165.448405 C388.5,167.727566 386.652375,169.575191 384.373214,169.575191 C383.625259,169.575191 382.891366,169.371914 382.25,168.987094 L380.123551,167.711225 C377.425897,166.092633 375.221965,163.767473 373.75,160.987094 C372.272447,158.196161 371.5,155.086171 371.5,151.928248 L371.5,149.987094 C371.5,145.5481 370.466487,141.170068 368.481308,137.199711 L366.855006,133.947106 C364.622041,129.481177 362.756346,124.840877 361.276407,120.072183 L359.074708,112.977821 C359.024903,112.817337 358.975537,112.656717 358.926612,112.495962 L356.836254,105.627644 C356.055801,103.063297 357.163758,100.301231 359.5,98.9870944 C362.159551,97.4910969 364.657433,95.7243402 366.953868,93.71496 L369.234444,91.7194558 C370.529046,90.586679 372.464287,90.5942384 373.75,91.7370944 C375.054882,92.8969896 375.349407,94.8214158 374.451163,96.31849 L373.75,97.4870944 C373.046429,98.6597131 373.426667,100.180666 374.599286,100.884237 C374.984105,101.115129 375.424441,101.237094 375.873214,101.237094 L383.5,101.237094 L386,101.237094 C386.738935,101.237094 387.337959,100.63807 387.337959,99.899135 C387.337959,99.6349884 387.259772,99.376752 387.11325,99.1569687 L383.765787,94.1357744 C383.588597,93.8699896 383.410024,93.6051294 383.230075,93.3412046 L378.858752,86.9299311 C376.954365,84.1368296 374.897476,81.4508163 372.697444,78.8841126 L368.723302,74.2476137 C367.574672,72.907545 366.464842,71.5347 365.395191,70.1307831 L363,66.9870944 C360.379125,63.5471962 356.902706,60.8540235 352.917032,59.1758447 L343.209224,55.0883466 C342.495443,54.7878071 342.160444,53.9655376 342.460983,53.2517563 C342.609026,52.9001542 342.89393,52.6240443 343.25,52.4870944 C345.380608,51.6676297 347.686571,51.4115901 349.945045,51.7437186 L358.40096,52.9872356 C359.174745,53.1010275 359.894268,52.5659973 360.00806,51.792212 C360.080736,51.2980151 359.887678,50.8020831 359.5,50.4870944 L357.529502,48.8860648 C356.176774,47.7869732 354.793085,46.7265448 353.380111,45.7060638 L350.226039,43.4281226 C348.07862,41.8772088 345.123065,42.1140297 343.25,43.9870944 C341.323169,45.9139251 338.357243,46.3410452 335.965022,45.0361971 L331.75,42.7370944 C326.312842,39.7713719 320.304553,38.0021351 314.127828,37.5479642 L294.184427,36.0815376 C291.290366,35.868739 288.735609,34.1127643 287.5,31.4870944 C286.799034,29.9975418 287.43831,28.2217757 288.927862,27.5208098 C289.324893,27.3339718 289.758278,27.2370944 290.197074,27.2370944 L294.25,27.2370944 C295.054545,27.2370944 295.706758,26.5848815 295.706758,25.780336 C295.706758,25.1576949 295.311035,24.6038872 294.721979,24.4021559 L266.5,14.7370944 L266.5,14.7370944 L247.94894,15.7489705 C241.997067,16.073618 236.090832,16.9759307 230.313519,18.4431848 L214.064852,22.5698305 C209.694198,23.6798377 205.41107,25.1096853 201.250103,26.8478107 L169.631173,40.0557182 C168.64433,40.4679439 167.506237,40.2433317 166.75,39.4870944 C166.18045,38.917544 166.18045,37.9941202 166.75,37.4245697 C166.815771,37.3587992 166.887682,37.2994713 166.964752,37.247397 L181.43773,27.4683579 C182.068991,27.0418304 182.23496,26.1843236 181.808432,25.553063 C181.617965,25.2711718 181.330049,25.0696066 181,24.9870944 C180.432437,24.8452036 180.087361,24.2700775 180.229252,23.7025143 C180.308623,23.3850298 180.530281,23.1220555 180.829748,22.990087 L207.5,11.2370944 L207.5,11.2370944 L226.5,6.73709443 L250.665913,0 C186.324109,2.99128519 128.601771,31.3181908 87.24741,75.2322035 C61.5381065,102.532799 42.154859,135.857652 31.4399832,172.864447 C25.2940061,194.091283 22,216.529511 22,239.737094 C22,311.934057 53.8788317,376.68532 104.328159,420.682546 L109.00008,420.710332 C111.47058,420.725025 113.485228,418.734199 113.499921,416.263699 C113.499974,416.254831 113.5,416.245963 113.5,416.237094 C113.5,413.340082 112.427658,410.545603 110.489659,408.392271 L107.201864,404.739166 C105.424389,402.764193 103.217012,401.223899 100.75,400.237094 C98.3023193,399.258022 96.1900244,397.591957 94.667693,395.439695 L88.5371636,386.772395 C84.525298,381.100447 81.1688109,374.992321 78.5318895,368.564825 L77.6599634,366.439505 C75.5679305,361.340175 72.6412386,356.624866 69,352.487094 L65.3424854,348.330828 C64.1144439,346.935326 62.9289795,345.502925 61.787725,344.035598 L54.75,334.987094 C48.9866324,327.57705 44.9160258,318.994707 42.824258,309.843223 L40.3130174,298.856546 C38.7758826,292.131581 38,285.255065 38,278.356664 L38,228.947133 C38,228.031688 37.2578854,227.289574 36.3424407,227.289574 C35.6041746,227.289574 34.9548981,227.777832 34.75,228.487094 L34.3447814,229.889774 C32.4576664,236.422095 31.5,243.187651 31.5,249.987094 C31.5,250.292201 31.2526621,250.539539 30.9475554,250.539539 C30.6654313,250.539539 30.4286343,250.326962 30.3983111,250.046472 L29.5,241.737094 C28.1856923,229.579748 29.7943012,217.284313 34.1919268,205.874257 L39.9601108,190.908158 C43.9447265,180.569696 49.9983289,171.153695 57.75,163.237094 L62.8997529,157.977772 C67.2870292,153.49715 71.1764303,148.554806 74.5,143.237094 L75.8354741,141.100336 C78.2750514,137.197012 81.0041275,133.482279 83.9997106,129.987432 L110.845144,98.6677599 C115.927695,92.7381164 120.234531,86.1854351 123.661748,79.167801 L126.904016,72.5288715 C128.148727,69.9801763 127.578494,66.9171246 125.5,64.9870944 L123.648785,63.2681094 C122.597403,62.2918258 122,60.9218538 122,59.4870944 C122,58.8086732 122.549969,58.2587042 123.22839,58.2587042 C123.463936,58.2587042 123.694515,58.3264258 123.892652,58.453799 L125.5,59.4870944 C127.307328,60.648948 129.714325,60.1256878 130.876178,58.31836 C130.923286,58.2450812 130.967919,58.1702407 131.010002,58.0939652 L135.067691,50.7394052 C136.259773,48.5787551 138.532315,47.2370944 141,47.2370944 C143.549823,47.2370944 145.983626,46.1714994 147.71312,44.2978807 L148.79559,43.1252056 C149.271598,42.6095302 150.075516,42.5773735 150.591191,43.0533816 C150.851789,43.293933 151,43.6324453 151,43.9870944 C151,45.3025725 152.066406,46.3689782 153.381884,46.3689782 C153.625214,46.3689782 153.867108,46.3316919 154.099144,46.2584175 L155.970482,45.6674684 C157.803861,45.0885067 159.75945,46.1054127 160.338411,47.9387915 C160.445505,48.2779206 160.5,48.6314576 160.5,48.9870944 C160.5,50.4840587 161.713529,51.6975879 163.210494,51.6975879 C163.69558,51.6975879 164.171777,51.5674078 164.589401,51.3206302 L167.195367,49.780741 C168.551974,48.9791099 170.301571,49.4290063 171.103202,50.7856129 C171.362968,51.2252167 171.5,51.7264773 171.5,52.2370944 C171.5,55.5069445 170.597813,58.7134 168.89275,61.5035036 L163.004182,71.1393422 C161.33639,73.8684563 159.498008,76.4895843 157.5,78.9870944 C155.625766,81.3298869 155.046405,84.4543667 155.956088,87.3133711 L156.25,88.2370944 C157.395362,91.8368025 157.546866,95.6790952 156.688499,99.357812 L155.352111,105.08519 C154.785907,107.51178 154.5,109.995323 154.5,112.487094 C154.5,114.963102 154.014928,117.415127 153.072188,119.704637 L152.75,120.487094 C152.325787,121.517326 152.817062,122.696386 153.847293,123.120598 C154.315063,123.313209 154.838125,123.323048 155.312807,123.148166 L157.684971,122.274211 C158.769042,121.874816 159.971628,122.429856 160.371022,123.513927 C160.456334,123.745488 160.5,123.990318 160.5,124.237094 C160.5,126.16448 161.233605,128.019607 162.551823,129.425706 L164.580294,131.589408 C166.762121,133.91669 169.80992,135.237094 173,135.237094 C176.1626,135.237094 179.156089,133.808985 181.145991,131.35087 L183.104369,128.931697 C183.530414,128.405407 184.302433,128.324142 184.828723,128.750186 C185.195465,129.047073 185.35929,129.528077 185.25,129.987094 C184.420924,133.469216 183.098368,136.814951 181.322458,139.922793 L181,140.487094 C180.383573,141.565841 180.758358,142.940051 181.837105,143.556478 C182.40476,143.880853 183.085449,143.94223 183.701973,143.724633 L190.992291,141.15158 C192.558302,140.59887 194.275865,141.420313 194.828575,142.986325 C194.942032,143.307786 195,143.646199 195,143.987094 C195,146.533933 193.393935,148.803941 190.992291,149.65158 L190.75,149.737094 C187.937151,150.729865 184.975965,151.237094 181.993061,151.237094 L178.079455,151.237094 C175.721257,151.237094 173.391148,150.725317 171.25,149.737094 C170.545768,149.412064 169.711386,149.719468 169.386356,150.4237 C169.222586,150.778537 169.214077,151.185568 169.362877,151.546938 L169.881813,152.807213 C170.480318,154.260723 169.787198,155.924209 168.333688,156.522714 C167.989926,156.664263 167.621764,156.737094 167.25,156.737094 L166.716517,156.737094 C164.349471,156.737094 162.092248,155.738567 160.5,153.987094 L159.84985,153.27193 C159.454876,152.837458 158.782476,152.805439 158.348004,153.200413 C158.126361,153.401907 158,153.687552 158,153.987094 C158,155.682938 157.075702,157.243967 155.588766,158.059384 L148.487094,161.953849 C144.60456,164.082981 141.533331,167.43407 139.75,171.487094 L138.913008,173.389348 C137.651463,176.256496 137,179.354678 137,182.487094 C137,185.58163 137.933618,188.604178 139.678818,191.159649 L146.313262,200.87437 C149.247174,205.170457 149.878009,210.635571 148,215.487094 L146.884445,218.368946 C145.663066,221.524173 145.527795,224.99641 146.5,228.237094 C147.078234,230.164542 149.109491,231.258295 151.036938,230.680061 C151.447538,230.556881 151.833179,230.36221 152.176123,230.105002 L153,229.487094 C156.147573,227.126415 158,223.421561 158,219.487094 L158,219.237094 C158,215.470187 160.687401,212.239428 164.391333,211.553514 L165.108667,211.420675 C168.812599,210.734761 171.5,207.504002 171.5,203.737094 C171.5,199.552521 173.048939,195.516052 175.848271,192.405682 L177.322418,190.767742 C179.368083,188.49478 180.5,185.545052 180.5,182.487094 C180.5,181.069591 181.649114,179.920478 183.066617,179.920478 C183.566339,179.920478 184.055192,180.066358 184.47319,180.340219 L192.699732,185.730022 C194.135169,186.670481 195,188.27101 195,189.987094 C195,191.803737 194.65336,193.603695 193.978676,195.290405 L190.20702,204.719545 C189.53763,206.393019 190.336259,208.293869 192,208.987094 C193.904981,209.780837 196.061032,209.706578 197.906888,208.78365 L202.540325,206.466932 C204.047776,205.713206 205,204.172476 205,202.487094 C205,202.308779 205.144553,202.164226 205.322868,202.164226 C205.472376,202.164226 205.602327,202.26687 205.636956,202.412312 L206.439833,205.784394 C207.146174,208.751026 207.704574,211.750944 208.112965,214.773036 L209.004584,221.371014 C209.652857,226.168234 211.743709,230.655174 215,234.237094 L216.533124,235.923531 C217.6782,237.183115 217.585373,239.132477 216.325789,240.277554 C215.949215,240.619894 215.493731,240.863662 215,240.987094 C214.146269,241.200527 213.627205,242.065634 213.840638,242.919365 C213.968251,243.429821 214.339635,243.844367 214.833046,244.027112 L220.686754,246.195151 C222.37763,246.821402 223.5,248.433972 223.5,250.237094 C223.5,251.893949 222.156854,253.237094 220.5,253.237094 L213.716517,253.237094 C211.487756,253.237094 209.499614,254.638177 208.75,256.737094 C208.026489,258.762926 205.955935,259.97975 203.83405,259.626103 L192.664962,257.764588 C188.607198,257.088294 184.449186,257.335248 180.5,258.487094 C180.026613,258.625166 179.754786,259.12085 179.892857,259.594237 C180.003968,259.97519 180.353175,260.237094 180.75,260.237094 L186.75,260.237094 C187.992641,260.237094 189,261.244454 189,262.487094 C189,263.866043 188.220908,265.12664 186.987539,265.743325 L186.5,265.987094 C185.11158,266.681304 184.534315,268.359155 185.201701,269.760666 L187.449852,274.481785 C188.464335,276.612197 190.036673,278.42821 192,279.737094 C192.817847,280.282326 193.038846,281.38732 192.493614,282.205167 C192.276547,282.530769 191.958217,282.775752 191.587887,282.902206 L180.428865,286.712604 C179.154315,287.147816 177.768279,286.467398 177.333067,285.192849 C177.112304,284.546328 177.172861,283.836849 177.5,283.237094 L178.345165,281.687625 C179.051638,280.392425 178.57438,278.76975 177.279181,278.063278 C176.88679,277.849247 176.446967,277.737094 176,277.737094 L175.105551,277.737094 C172.75455,277.737094 170.456151,278.432994 168.5,279.737094 C166.505392,281.066833 164.378094,282.185857 162.15233,283.076163 L161.017549,283.530075 C159.195053,284.259073 158,286.024206 158,287.987094 C158,289.78202 156.544925,291.237094 154.75,291.237094 L147.75,291.237094 C146.231217,291.237094 145,292.468311 145,293.987094 C145,295.596816 143.888923,296.993497 142.320424,297.355458 L137.602749,298.444152 C134.323161,299.20098 132,302.121313 132,305.487094 C132,308.89752 129.756821,311.90174 126.486911,312.870602 L121.349222,314.392881 C119.450236,314.955543 117.533575,315.456736 115.602237,315.895677 L113,316.487094 C109.782947,317.218243 107.5,320.07826 107.5,323.377352 L107.5,342.13679 C107.5,343.25185 106.596065,344.155786 105.481004,344.155786 C105.035726,344.155786 104.602938,344.008585 104.25,343.737094 C102.20081,342.160794 101,339.722114 101,337.13679 L101,322.890976 C101,319.862005 98.9385342,317.221728 96,316.487094 L93.7439774,315.923089 C91.9484608,315.47421 90.3086963,314.545791 89,313.237094 C87.6676876,311.904782 86.2626624,310.647224 84.7913695,309.47019 L83.25,308.237094 C80.7619235,306.246633 78.5606896,303.92206 76.7086947,301.329267 L72.9874292,296.119495 C70.7988751,293.05552 67.2653308,291.237094 63.5,291.237094 C59.9737589,291.237094 56.9000253,293.636993 56.0447862,297.057949 L54.7071075,302.408664 C53.2611739,308.192399 53.3621849,314.254742 55,319.987094 L55.1198541,320.406584 C56.6828932,325.877221 59.559807,330.882727 63.5,334.987094 L66.6341396,338.251823 C68.3478487,340.036937 71.0075987,340.533548 73.25,339.487094 L74.0462043,339.115532 C75.8861102,338.25691 78.0370375,338.397027 79.75,339.487094 C81.3889218,340.530045 82.1675675,342.511419 81.6772053,344.391141 L81,346.987094 C80.0366086,350.680095 80.5210721,354.601661 82.3542371,357.94918 L88.8385842,369.790161 C90.2566834,372.379734 91,375.284656 91,378.237094 C91,381.127243 92.1047126,383.90809 94.0879919,386.010366 L110.510237,403.417945 C114.014029,407.131965 118.894072,409.237094 124,409.237094 L124.094306,409.237094 C129.242112,409.237094 134.267514,410.806912 138.5,413.737094 C142.825349,416.731567 147.399784,419.349189 152.17292,421.561131 L159.668279,425.03459 C163.546512,426.831819 167.593602,428.239559 171.75,429.237094 L172.741012,429.474937 C176.121745,430.286313 179.071454,432.344276 181,435.237094 C182.874234,438.048445 186.029504,439.737094 189.408327,439.737094 L190.41061,439.737094 C193.245578,439.737094 195.860125,441.266205 197.25,443.737094 C198.673343,446.267482 201.162106,448.020869 204.023929,448.509473 L212.06421,449.882203 C217.283534,450.773308 222.224987,452.863046 226.5,455.987094 L228.568533,457.498715 C230.164809,458.665224 230.513203,460.904903 229.346694,462.501178 C229.053516,462.902369 228.680028,463.238131 228.25,463.487094 C227.268578,464.055286 226.933588,465.311497 227.50178,466.292919 C227.799471,466.807113 228.305295,467.167152 228.888621,467.280053 L231.25,467.737094 C236.373202,468.728682 241.634835,468.772124 246.773711,467.865263 L252.250056,466.898849 C254.696793,466.467072 257.216345,466.758385 259.5,467.737094 C261.809262,468.726778 264.295485,469.237094 266.807887,469.237094 L295.023472,469.237094 C296.294823,469.237094 297.325457,470.267728 297.325457,471.539079 C297.325457,472.330062 296.919355,473.065649 296.25,473.487094 C292.048857,476.132258 289.5,480.749099 289.5,485.713623 L289.5,680.737094 C289.5,687.493008 294.97675,692.969759 301.732664,692.969759 C307.920447,692.969759 313.133765,688.349034 313.876812,682.206027" id="world" stroke="#FFFFFF" stroke-width="2"></path>
    </g>
</svg>