<?xml version="1.0" encoding="UTF-8"?>
<svg width="512px" height="512px" viewBox="0 0 512 512" version="1.1" xmlns="http://www.w3.org/2000/svg" xmlns:xlink="http://www.w3.org/1999/xlink">
    <title>logo-dark-colored</title>
    <g id="logo-dark-colored" stroke="none" stroke-width="1" fill="none" fill-rule="evenodd">
        <path d="M479.393972,112 C481.050826,112 482.393972,113.343146 482.393972,115 C482.393972,116.445736 481.362847,117.68583 479.941383,117.949634 L468.790803,120.019027 C441.676196,125.051121 418.663594,142.873778 407.008798,167.867569 L316.16234,362.686687 C314.295081,366.691001 309.535232,368.423426 305.530918,366.556167 C303.878916,365.785819 302.539519,364.474415 301.734455,362.83905 L288.412801,335.778117 C279.638637,317.954724 279.638769,297.067341 288.413159,279.244059 L342.141012,170.107508 C349.344256,155.475613 344.39112,137.767352 330.641822,128.996043 L315.556193,119.372227 C313.693764,118.184098 313.147136,115.711131 314.335265,113.848701 C315.069935,112.697084 316.34149,112 317.707492,112 L479.393972,112 Z" id="Path" fill="#2B3595"></path>
        <path d="M194.292239,112 C196.501378,112 198.292239,113.790861 198.292239,116 C198.292239,117.366017 197.59514,118.637584 196.443502,119.37225 L175.31589,132.850211 C165.003765,139.428636 161.288809,152.709939 166.691284,163.683947 L292.454903,419.146636 C295.387834,425.104334 292.935803,432.311622 286.978117,435.244576 C286.178077,435.638433 285.337123,435.941862 284.470861,436.149555 L284.035693,436.245399 C255.751685,441.927454 226.206905,427.826953 213.474366,400.521935 L105.233276,168.398168 C93.5372948,143.316055 70.4916459,125.389955 43.302756,120.225399 L31.3096618,117.9473 C29.681913,117.638107 28.6130119,116.067906 28.9222043,114.440158 C29.1911098,113.0245 30.4285333,112 31.8695041,112 L194.292239,112 Z" id="Path" fill="#7045AF"></path>
    </g>
</svg>