<?xml version="1.0" encoding="UTF-8"?>
<svg width="1856px" height="512px" viewBox="0 0 1856 512" version="1.1" xmlns="http://www.w3.org/2000/svg" xmlns:xlink="http://www.w3.org/1999/xlink">
    <title>logo-type</title>
    <g id="logo-type" stroke="none" stroke-width="1" fill="none" fill-rule="evenodd">
        <path d="M753.13278,104.244103 C754.730459,104.244103 756.036437,105.493021 756.127687,107.067826 L756.13278,107.244103 L756.13278,168.052516 L804.21486,168.052516 C817.346717,168.052516 828.017054,178.591535 828.229147,191.672849 L828.232365,192.070022 L756.13278,192.070022 L756.13278,354.938731 C756.13278,398.530503 780.185134,410.08249 828.289842,389.59469 L833.173742,387.497796 L833.173742,387.497796 L835.342783,386.58036 L835.342783,386.58036 C836.014857,386.297068 836.767117,386.26831 837.458859,386.499467 C838.974166,387.005833 839.816982,388.604276 839.404408,390.126809 L839.353371,390.295608 L839.209584,390.717474 C838.921501,391.545739 838.630504,392.281244 838.336593,392.923988 C828.638258,414.132961 795.834335,439 763.643154,439 C718.288008,439 708.265265,390.289523 708.069345,355.97412 L708.06639,354.938731 L708.06639,192.070022 L670.788212,192.070022 C669.745422,192.070022 668.777441,191.528517 668.231759,190.639899 C667.364746,189.228009 667.806456,187.380593 669.21834,186.513571 L671.083925,185.363294 L671.083925,185.363294 L672.920741,184.221364 L672.920741,184.221364 L675.622026,182.524118 L675.622026,182.524118 L677.386923,181.403054 L677.386923,181.403054 L679.123052,180.290336 C679.41001,180.105579 679.695768,179.921169 679.980329,179.737107 L681.673306,178.63691 L681.673306,178.63691 L683.337515,177.545058 L683.337515,177.545058 L684.972957,176.461554 L684.972957,176.461554 L686.579631,175.386395 L686.579631,175.386395 L688.157537,174.319584 L688.157537,174.319584 L689.706675,173.261118 C689.962467,173.085403 690.217061,172.910036 690.470456,172.735016 L691.976442,171.68907 L691.976442,171.68907 L693.45366,170.651471 L693.45366,170.651471 L694.902111,169.622219 L694.902111,169.622219 L696.321794,168.601313 L696.321794,168.601313 L697.712709,167.588753 C697.94213,167.420689 698.170354,167.252972 698.397378,167.085603 L699.745141,166.085564 L699.745141,166.085564 L701.064137,165.09387 C701.499007,164.764697 701.929083,164.436915 702.354364,164.110524 L703.615824,163.135524 C703.82367,162.973719 704.030317,162.812262 704.235765,162.651153 L705.454073,161.688673 L705.454073,161.688673 L706.643613,160.734539 C707.035332,160.417885 707.422256,160.102623 707.804385,159.788751 L708.93639,158.85131 L708.93639,158.85131 L710.039626,157.922216 L710.039626,157.922216 L711.114095,157.001468 C711.467456,156.695943 711.816023,156.391809 712.159796,156.089067 L713.176729,155.185012 C713.34382,155.035031 713.509713,154.885399 713.674407,154.736114 L714.648188,153.844579 L714.648188,153.844579 L715.593202,152.96139 L715.593202,152.96139 L716.509447,152.086548 C716.960378,151.651213 717.400521,151.219009 717.829876,150.789934 C721.367032,147.255087 725.022281,143.082956 728.795622,138.273542 L729.827643,136.946083 L729.827643,136.946083 L730.86552,135.587023 L730.86552,135.587023 L731.909253,134.196363 C732.78147,133.024312 733.659787,131.819344 734.544204,130.581458 L735.608432,129.080194 L735.608432,129.080194 L736.678516,127.54733 C737.751528,125.998665 738.833324,124.402599 739.923903,122.759132 L741.01741,121.099864 C741.200149,120.820686 741.383133,120.540191 741.56636,120.25838 L742.668651,118.551711 L742.668651,118.551711 L743.776798,116.813441 C743.961977,116.521096 744.1474,116.227434 744.333067,115.932456 L745.449998,114.146785 C745.636641,113.84654 745.823528,113.544978 746.010659,113.242099 L747.136373,111.409027 L747.136373,111.409027 L748.267943,109.544354 L748.267943,109.544354 L749.405369,107.64808 C749.785487,107.010722 750.166581,106.368097 750.548651,105.720205 C751.088068,104.805493 752.070863,104.244103 753.13278,104.244103 Z M262.292239,112 C264.501378,112 266.292239,113.790861 266.292239,116 C266.292239,117.366017 265.59514,118.637584 264.443502,119.37225 L243.31589,132.850211 C233.003765,139.428636 229.288809,152.709939 234.691284,163.683947 L360.454903,419.146636 C363.387834,425.104334 360.935803,432.311622 354.978117,435.244576 C354.178077,435.638433 353.337123,435.941862 352.470861,436.149555 L352.035693,436.245399 C323.751685,441.927454 294.206905,427.826953 281.474366,400.521935 L173.233276,168.398168 C161.537295,143.316055 138.491646,125.389955 111.302756,120.225399 L99.3096618,117.9473 C97.681913,117.638107 96.6130119,116.067906 96.9222043,114.440158 C97.1911098,113.0245 98.4285333,112 99.8695041,112 L262.292239,112 Z M1368.53682,168 C1430.13202,168 1440.64827,217.5 1440.64827,264 L1440.64827,381.133951 C1440.64827,397.59754 1449.95539,412.646367 1464.68542,420 L1477.33675,426.315889 C1478.81915,427.05594 1479.42094,428.857588 1478.68088,430.339981 C1478.17304,431.357245 1477.13376,432 1475.99677,432 L1375.78739,432 C1374.13054,432 1372.78739,430.656854 1372.78739,429 C1372.78739,428.203547 1373.1041,427.439782 1373.66771,426.87704 L1380.5554,420 C1388.25012,412.317169 1392.57397,401.889874 1392.57397,391.016298 L1392.57397,264 C1392.57397,228.75 1377.55075,204 1344.49967,204 C1335.64945,204 1325.18343,208.517279 1313.10159,217.551837 L1312.04692,218.348837 C1311.51755,218.753029 1310.98513,219.165761 1310.44965,219.587032 L1309.37462,220.44096 L1308.29144,221.31766 L1307.7468,221.764549 L1307.7468,221.764549 L1306.65141,222.675405 C1306.28492,222.982819 1305.91707,223.294029 1305.54787,223.609033 L1304.43618,224.565433 L1303.31636,225.544603 C1302.94172,225.874789 1302.56573,226.20877 1302.18838,226.546546 L1301.05226,227.571259 L1299.908,228.618744 L1298.17633,230.232668 L1298.17633,230.232668 L1297.0117,231.337082 C1296.81692,231.523048 1296.62179,231.709964 1296.42633,231.897828 L1296.42537,394.016298 C1296.42537,404.889874 1300.74922,415.317169 1308.44395,423 L1315.33163,429.87704 C1316.50411,431.047706 1316.50558,432.947201 1315.33491,434.119679 C1314.77217,434.683292 1314.0084,435 1313.21195,435 L1213.00257,435 C1211.34571,435 1210.00257,433.656854 1210.00257,432 C1210.00257,430.863015 1210.64532,429.823735 1211.66259,429.315889 L1224.31392,423 C1239.04395,415.646367 1248.35107,400.59754 1248.35107,384.133951 L1248.35107,219.03715 C1248.35107,205.761799 1237.58927,195 1224.31392,195 C1222.6821,195 1221.35925,193.677149 1221.35925,192.045329 C1221.35925,190.689125 1222.28252,189.507065 1223.59835,189.178616 L1288.97227,172.860394 C1292.18733,172.057871 1295.44423,174.01362 1296.24675,177.228682 C1296.36538,177.70394 1296.42537,178.191938 1296.42537,178.681778 L1296.42539,210.336127 C1320.10919,182.112042 1344.14633,168 1368.53682,168 Z M1626.75,168 C1679.29064,168 1715.21401,197.541819 1734.5201,256.625457 L1734.74513,257.322015 L1734.74513,257.322015 L1735.09933,258.447298 L1735.09933,258.447298 L1735.60264,260.097841 L1735.60264,260.097841 L1736.00343,261.448374 L1736.00343,261.448374 L1736.42418,262.895442 L1736.42418,262.895442 L1737.01624,264.975032 L1737.01624,264.975032 L1737.80624,267.815859 C1737.86076,268.014186 1737.91564,268.214301 1737.9709,268.416203 C1738.8456,271.612382 1736.96368,274.912486 1733.7675,275.787192 C1733.25142,275.928429 1732.71876,276 1732.1837,276 L1602.8015,276 C1601.14464,276 1599.8015,274.656854 1599.8015,273 C1599.8015,272.251467 1600.08133,271.529973 1600.58604,270.977192 L1603.875,267.375 C1608.89183,261.880377 1615.98891,258.75 1623.42931,258.75 L1692,258.75 C1685.5,214.25 1663.75,192 1626.75,192 C1571.25,192 1548,250.5 1548,300 C1548,349.5 1577.25,401.25 1644,401.25 C1679.42869,401.25 1706.93419,387.463643 1726.5165,359.890928 L1727.10748,359.051172 C1727.94868,357.844896 1729.60849,357.548947 1730.81477,358.390152 C1731.82511,359.09472 1732.22035,360.400281 1731.77044,361.546923 L1731.58917,362.005374 L1731.58917,362.005374 L1731.23376,362.883626 C1731.17532,363.025706 1731.11727,363.165638 1731.05961,363.303422 C1711.05863,411.101141 1674.03876,435 1620,435 C1524.75,435 1500,355.5 1500,300 C1500,244.5 1539.75,168 1626.75,168 Z M611.820855,174.229445 C611.939836,174.705368 612,175.194088 612,175.684658 L612,391.029437 C612,401.895506 616.316529,412.316529 624,420 L630.87868,426.87868 C632.050253,428.050253 632.050253,429.949747 630.87868,431.12132 C630.316071,431.683929 629.553009,432 628.757359,432 L528.708204,432 C527.05135,432 525.708204,430.656854 525.708204,429 C525.708204,427.863684 526.350211,426.824894 527.366563,426.316718 L540,420 C554.708786,412.645607 564,397.612106 564,381.167184 L564,216 C564,202.745166 553.254834,192 540,192 C538.368255,192 537.045465,190.67721 537.045465,189.045465 C537.045465,187.689724 537.968159,186.50796 539.28342,186.179145 L604.544786,169.863803 C607.759556,169.060111 611.017163,171.014675 611.820855,174.229445 Z M1139.82086,174.229445 C1139.93984,174.705368 1140,175.194088 1140,175.684658 L1140,391.029437 C1140,401.895506 1144.31653,412.316529 1152,420 L1158.87868,426.87868 C1160.05025,428.050253 1160.05025,429.949747 1158.87868,431.12132 C1158.31607,431.683929 1157.55301,432 1156.75736,432 L1056.7082,432 C1055.05135,432 1053.7082,430.656854 1053.7082,429 C1053.7082,427.863684 1054.35021,426.824894 1055.36656,426.316718 L1068,420 C1082.70879,412.645607 1092,397.612106 1092,381.167184 L1092,216 C1092,202.745166 1081.25483,192 1068,192 C1066.36826,192 1065.04546,190.67721 1065.04546,189.045465 C1065.04546,187.689724 1065.96816,186.50796 1067.28342,186.179145 L1132.54479,169.863803 C1135.75956,169.060111 1139.01716,171.014675 1139.82086,174.229445 Z M1002.10188,165 C1043.49006,165 1049.35838,204.820025 1027.57128,213 C1020.73258,215.567596 1015.08615,214.445535 1009.5188,212.069282 L1008.79298,211.752423 C1008.67206,211.698495 1008.55115,211.644024 1008.43024,211.589035 L1007.70474,211.253091 C1007.5838,211.196131 1007.46283,211.138704 1007.34184,211.080835 L1006.46323,210.653531 L1005.58256,210.212818 L1004.69884,209.760818 L1003.36545,209.066304 L1000.20071,207.405871 L999.27838,206.930759 L998.346213,206.45923 L997.376884,205.980569 C991.84969,203.289589 985.721971,201 978.130673,201 C973.51767,201 968.464474,202.234022 962.971084,204.702066 C956.441116,207.635819 949.289156,212.313241 941.515205,218.734333 L940.052289,219.957039 C939.562228,220.371401 939.069743,220.792555 938.574836,221.220502 L937.082843,222.524722 L936.331395,223.192116 L934.817594,224.557471 L933.289256,225.963583 L931.746378,227.410452 L930.188962,228.898077 L930.188264,391.029437 C930.188264,399.777119 932.982443,408.236368 938.075951,415.21107 C938.872753,416.302513 939.726303,417.357682 940.634296,418.371979 L941.010156,418.786082 C941.388975,419.197834 941.776922,419.602579 942.173866,420 L949.044293,426.87868 C949.107838,426.942301 949.167933,427.00807 949.224577,427.075752 C950.161658,428.193597 950.155629,429.833805 949.207118,430.945151 C949.155585,431.005382 949.101329,431.064216 949.044293,431.12132 C948.926345,431.23941 948.799577,431.346637 948.665538,431.442361 C948.620701,431.474027 948.575176,431.504654 948.528901,431.53398 C948.196251,431.745453 947.823863,431.889291 947.433978,431.956505 C947.350503,431.970603 947.266148,431.981538 947.1812,431.988874 C947.096108,431.996343 947.011001,432 946.925517,432 L846.998011,432 C845.341157,432 843.998011,430.656854 843.998011,429 C843.998011,427.864203 844.639438,426.825795 845.655081,426.317363 L858.274649,420 C872.966965,412.645017 882.245854,397.623393 882.245854,381.192936 L882.245854,215.971205 C882.245854,202.732274 871.51358,192 858.274649,192 C856.642963,192 855.32022,190.677257 855.32022,189.045571 C855.32022,187.69019 856.242465,186.508656 857.557285,186.179557 L922.731405,169.866454 C925.945947,169.061853 929.204106,171.015497 930.008707,174.230039 C930.12796,174.706479 930.188264,175.195759 930.188264,175.686898 L930.188,207.336 L930.895714,206.495106 C954.285724,178.831702 978.021112,165 1002.10188,165 Z M547.393972,112 C549.050826,112 550.393972,113.343146 550.393972,115 C550.393972,116.445736 549.362847,117.68583 547.941383,117.949634 L536.790803,120.019027 C509.676196,125.051121 486.663594,142.873778 475.008798,167.867569 L384.16234,362.686687 C382.295081,366.691001 377.535232,368.423426 373.530918,366.556167 C371.878916,365.785819 370.539519,364.474415 369.734455,362.83905 L356.412801,335.778117 C347.638637,317.954724 347.638769,297.067341 356.413159,279.244059 L410.141012,170.107508 C417.344256,155.475613 412.39112,137.767352 398.641822,128.996043 L383.556193,119.372227 C381.693764,118.184098 381.147136,115.711131 382.335265,113.848701 C383.069935,112.697084 384.34149,112 385.707492,112 L547.393972,112 Z" id="Shape" fill="#000000"></path>
    </g>
</svg>