<?xml version="1.0" encoding="UTF-8"?>
<svg width="98px" height="98px" viewBox="0 0 98 98" version="1.1" xmlns="http://www.w3.org/2000/svg" xmlns:xlink="http://www.w3.org/1999/xlink">
    <title>􀏈</title>
    <g id="website-design" stroke="none" stroke-width="1" fill="none" fill-rule="evenodd">
        <g id="icons" transform="translate(-767.000000, -79.000000)">
            <g id="􀏈" transform="translate(768.000000, 80.000000)">
                <rect id="frame" stroke-opacity="0.01" stroke="#979797" stroke-width="0.1" x="0" y="0" width="96" height="96"></rect>
                <path d="M22.92925,75.09375 L73.80425,75.09375 C76.9709167,75.09375 79.3459167,74.3072917 80.92925,72.734375 C82.5125833,71.1614583 83.30425,68.8229167 83.30425,65.71875 L83.30425,29.65625 C83.30425,26.5520833 82.5125833,24.2135417 80.92925,22.640625 C79.3459167,21.0677083 76.9709167,20.28125 73.80425,20.28125 L22.92925,20.28125 C19.80425,20.28125 17.4396667,21.0677083 15.8355,22.640625 C14.2313333,24.2135417 13.42925,26.5520833 13.42925,29.65625 L13.42925,65.71875 C13.42925,68.8229167 14.2313333,71.1614583 15.8355,72.734375 C17.4396667,74.3072917 19.80425,75.09375 22.92925,75.09375 Z M33.92925,47.71875 C33.92925,46.90625 34.1896667,46.2395833 34.7105,45.71875 C35.2313333,45.1979167 35.898,44.9375 36.7105,44.9375 L45.648,44.9375 L45.648,36.03125 C45.648,35.21875 45.898,34.5520833 46.398,34.03125 C46.898,33.5104167 47.5438333,33.25 48.3355,33.25 C49.1688333,33.25 49.8407083,33.5052083 50.351125,34.015625 C50.8615417,34.5260417 51.11675,35.1979167 51.11675,36.03125 L51.11675,44.9375 L60.0855,44.9375 C60.898,44.9375 61.5594583,45.1979167 62.069875,45.71875 C62.5802917,46.2395833 62.8355,46.90625 62.8355,47.71875 C62.8355,48.5104167 62.5750833,49.1614583 62.05425,49.671875 C61.5334167,50.1822917 60.8771667,50.4375 60.0855,50.4375 L51.11675,50.4375 L51.11675,59.375 C51.11675,60.1666667 50.8615417,60.8229167 50.351125,61.34375 C49.8407083,61.8645833 49.1688333,62.125 48.3355,62.125 C47.5438333,62.125 46.898,61.8645833 46.398,61.34375 C45.898,60.8229167 45.648,60.1666667 45.648,59.375 L45.648,50.4375 L36.7105,50.4375 C35.898,50.4375 35.2313333,50.1822917 34.7105,49.671875 C34.1896667,49.1614583 33.92925,48.5104167 33.92925,47.71875 Z" fill="#FFFFFF" fill-rule="nonzero"></path>
            </g>
        </g>
    </g>
</svg>