<?xml version="1.0" encoding="UTF-8"?>
<svg width="98px" height="98px" viewBox="0 0 98 98" version="1.1" xmlns="http://www.w3.org/2000/svg" xmlns:xlink="http://www.w3.org/1999/xlink">
    <title>􀣺</title>
    <g id="website-design" stroke="none" stroke-width="1" fill="none" fill-rule="evenodd">
        <g id="icons" transform="translate(-79.000000, -79.000000)">
            <g id="􀣺" transform="translate(80.000000, 80.000000)">
                <rect id="frame" stroke-opacity="0.01" stroke="#979797" stroke-width="0.1" x="0" y="0" width="96" height="96"></rect>
                <path d="M59.523,30.9375 C58.0646667,30.9375 56.694875,31.1614583 55.413625,31.609375 C54.132375,32.0572917 52.9709167,32.5052083 51.92925,32.953125 C50.8875833,33.4010417 49.99175,33.625 49.24175,33.625 C48.4084167,33.625 47.5021667,33.4114583 46.523,32.984375 C45.5438333,32.5572917 44.4865417,32.1354167 43.351125,31.71875 C42.2157083,31.3020833 41.0021667,31.09375 39.7105,31.09375 C37.2938333,31.09375 34.9605,31.7552083 32.7105,33.078125 C30.4605,34.4010417 28.6219583,36.3541667 27.194875,38.9375 C25.7677917,41.5208333 25.05425,44.6979167 25.05425,48.46875 C25.05425,50.84375 25.3250833,53.2135417 25.86675,55.578125 C26.4084167,57.9427083 27.1427917,60.1822917 28.069875,62.296875 C28.9969583,64.4114583 30.023,66.2708333 31.148,67.875 C32.6063333,69.9166667 34.0282083,71.6666667 35.413625,73.125 C36.7990417,74.5833333 38.4084167,75.3125 40.24175,75.3125 C41.4500833,75.3125 42.5021667,75.109375 43.398,74.703125 C44.2938333,74.296875 45.2365417,73.8958333 46.226125,73.5 C47.2157083,73.1041667 48.4605,72.90625 49.9605,72.90625 C51.4813333,72.90625 52.694875,73.0989583 53.601125,73.484375 C54.507375,73.8697917 55.3875833,74.2604167 56.24175,74.65625 C57.0959167,75.0520833 58.1896667,75.25 59.523,75.25 C60.8563333,75.25 62.0490417,74.8958333 63.101125,74.1875 C64.1532083,73.4791667 65.1271667,72.5729167 66.023,71.46875 C66.9188333,70.3645833 67.7834167,69.21875 68.61675,68.03125 C69.55425,66.65625 70.3146667,65.3489583 70.898,64.109375 C71.4813333,62.8697917 71.913625,61.84375 72.194875,61.03125 C72.476125,60.21875 72.61675,59.78125 72.61675,59.71875 C72.5750833,59.6979167 72.1532083,59.4739583 71.351125,59.046875 C70.5490417,58.6197917 69.6427917,57.9479167 68.632375,57.03125 C67.6219583,56.1145833 66.7313333,54.9010417 65.9605,53.390625 C65.1896667,51.8802083 64.80425,50.0416667 64.80425,47.875 C64.80425,46 65.1063333,44.375 65.7105,43 C66.3146667,41.625 67.023,40.4895833 67.8355,39.59375 C68.648,38.6979167 69.3771667,38.015625 70.023,37.546875 C70.6688333,37.078125 71.0334167,36.8125 71.11675,36.75 C70.1375833,35.3333333 69.0646667,34.2291667 67.898,33.4375 C66.7313333,32.6458333 65.5907083,32.0729167 64.476125,31.71875 C63.3615417,31.3645833 62.3615417,31.1458333 61.476125,31.0625 C60.5907083,30.9791667 59.9396667,30.9375 59.523,30.9375 Z M57.4605,26.15625 C58.3563333,25.0520833 59.0959167,23.7864583 59.67925,22.359375 C60.2625833,20.9322917 60.55425,19.46875 60.55425,17.96875 C60.55425,17.53125 60.5125833,17.1354167 60.42925,16.78125 C58.9709167,16.84375 57.4396667,17.2916667 55.8355,18.125 C54.2313333,18.9583333 52.898,20 51.8355,21.25 C51.0021667,22.1875 50.257375,23.3645833 49.601125,24.78125 C48.944875,26.1979167 48.61675,27.65625 48.61675,29.15625 C48.61675,29.3854167 48.632375,29.5989583 48.663625,29.796875 C48.694875,29.9947917 48.7209167,30.1354167 48.74175,30.21875 C48.99175,30.2604167 49.2521667,30.28125 49.523,30.28125 C50.8563333,30.28125 52.2677917,29.890625 53.757375,29.109375 C55.2469583,28.328125 56.4813333,27.34375 57.4605,26.15625 Z" fill="#FFFFFF" fill-rule="nonzero"></path>
            </g>
        </g>
    </g>
</svg>