<?xml version="1.0" encoding="UTF-8"?>
<svg width="96px" height="96px" viewBox="0 0 96 96" version="1.1" xmlns="http://www.w3.org/2000/svg" xmlns:xlink="http://www.w3.org/1999/xlink">
    <title>google-play</title>
    <g id="google-play" stroke="none" stroke-width="1" fill="none" fill-rule="evenodd">
        <g id="g11" transform="translate(21.000000, 19.000000)" fill="#FFFFFF" fill-rule="nonzero">
            <path d="M32.2816406,28.4966583 L40.8281117,20.0097748 L5.36635533,0.567952362 C4.86221823,0.291006808 4.37371329,0.10515372 3.91009639,0 L32.2816406,28.4966583 Z" id="path13-6"></path>
            <path d="M42.0681944,38.3262895 L52.7863013,32.4503159 C55.7378996,30.8324566 55.7378996,28.1842539 52.7863013,26.5663946 L42.3855683,20.8636393 L33.4836713,29.7038882 L42.0681944,38.3262895 Z" id="path15"></path>
            <path d="M1.70904739,0.204193853 C0.659635935,0.73954041 0,1.95634829 0,3.70218535 L0,55.3141176 C0,57.0754424 0.671360054,58.2995866 1.73784347,58.827393 L31.0724109,29.697367 L1.70904739,0.204193853 Z" id="path17-8"></path>
            <path d="M32.2744416,30.9048007 L3.98188091,59 C4.42410643,58.8917895 4.88813471,58.7106235 5.36614965,58.4483505 L40.5127946,39.1793388 L32.2744416,30.9048007 Z" id="path19-3"></path>
        </g>
    </g>
</svg>