<?xml version="1.0" encoding="UTF-8"?>
<svg width="98px" height="98px" viewBox="0 0 98 98" version="1.1" xmlns="http://www.w3.org/2000/svg" xmlns:xlink="http://www.w3.org/1999/xlink">
    <title>􀋑</title>
    <g id="website-design" stroke="none" stroke-width="1" fill="none" fill-rule="evenodd">
        <g id="icons" transform="translate(-423.000000, -79.000000)">
            <g id="􀋑" transform="translate(424.000000, 80.000000)">
                <rect id="frame" stroke-opacity="0.01" stroke="#979797" stroke-width="0.1" x="0" y="0" width="96" height="96"></rect>
                <path d="M20.569875,42 C19.694875,42.4166667 19.0334167,42.953125 18.5855,43.609375 C18.1375833,44.265625 17.8927917,44.9583333 17.851125,45.6875 C17.8094583,46.4166667 17.9500833,47.109375 18.273,47.765625 C18.5959167,48.421875 19.0907083,48.9583333 19.757375,49.375 C20.4240417,49.7916667 21.2365417,50 22.194875,50 L43.632375,50.09375 C43.7782083,50.09375 43.882375,50.1197917 43.944875,50.171875 C44.007375,50.2239583 44.038625,50.3333333 44.038625,50.5 L44.069875,71.78125 C44.069875,72.78125 44.2834167,73.609375 44.7105,74.265625 C45.1375833,74.921875 45.6844583,75.4010417 46.351125,75.703125 C47.0177917,76.0052083 47.7313333,76.1197917 48.49175,76.046875 C49.2521667,75.9739583 49.9657083,75.6927083 50.632375,75.203125 C51.2990417,74.7135417 51.851125,74.0104167 52.288625,73.09375 L74.069875,26.09375 C74.6115417,24.8854167 74.819875,23.8020833 74.694875,22.84375 C74.569875,21.8854167 74.1844583,21.109375 73.538625,20.515625 C72.8927917,19.921875 72.0750833,19.5729167 71.0855,19.46875 C70.0959167,19.3645833 69.0177917,19.59375 67.851125,20.15625 L20.569875,42 Z M26.882375,44.90625 C26.819875,44.90625 26.7834167,44.8802083 26.773,44.828125 C26.7625833,44.7760417 26.788625,44.7291667 26.851125,44.6875 L68.007375,25.875 C68.1115417,25.8333333 68.1844583,25.8333333 68.226125,25.875 C68.2677917,25.9166667 68.257375,25.9895833 68.194875,26.09375 L49.288625,67.21875 C49.2677917,67.2604167 49.2365417,67.28125 49.194875,67.28125 C49.1532083,67.28125 49.132375,67.25 49.132375,67.1875 L49.257375,47.3125 C49.257375,46.5208333 49.038625,45.9010417 48.601125,45.453125 C48.163625,45.0052083 47.538625,44.78125 46.726125,44.78125 L26.882375,44.90625 Z" fill="#FFFFFF" fill-rule="nonzero"></path>
            </g>
        </g>
    </g>
</svg>