<?xml version="1.0" encoding="UTF-8"?>
<svg width="98px" height="98px" viewBox="0 0 98 98" version="1.1" xmlns="http://www.w3.org/2000/svg" xmlns:xlink="http://www.w3.org/1999/xlink">
    <title>􀉩</title>
    <g id="website-design" stroke="none" stroke-width="1" fill="none" fill-rule="evenodd">
        <g id="icons" transform="translate(-595.000000, -79.000000)">
            <g id="􀉩" transform="translate(596.000000, 80.000000)">
                <rect id="frame" stroke-opacity="0.01" stroke="#979797" stroke-width="0.1" x="0" y="0" width="96" height="96"></rect>
                <path d="M29.851125,75.65625 L66.851125,75.65625 C71.8094583,75.65625 74.288625,74.0208333 74.288625,70.75 C74.288625,68.7708333 73.6896667,66.6822917 72.49175,64.484375 C71.2938333,62.2864583 69.5646667,60.2291667 67.30425,58.3125 C65.0438333,56.3958333 62.319875,54.828125 59.132375,53.609375 C55.944875,52.390625 52.3615417,51.78125 48.382375,51.78125 C44.382375,51.78125 40.7834167,52.390625 37.5855,53.609375 C34.3875833,54.828125 31.663625,56.3958333 29.413625,58.3125 C27.163625,60.2291667 25.4396667,62.2864583 24.24175,64.484375 C23.0438333,66.6822917 22.444875,68.7708333 22.444875,70.75 C22.444875,74.0208333 24.913625,75.65625 29.851125,75.65625 Z M28.694875,70.84375 C28.3407083,70.84375 28.0802917,70.7864583 27.913625,70.671875 C27.7469583,70.5572917 27.663625,70.3541667 27.663625,70.0625 C27.663625,68.8958333 28.11675,67.546875 29.023,66.015625 C29.92925,64.484375 31.2625833,63.0052083 33.023,61.578125 C34.7834167,60.1510417 36.9500833,58.9635417 39.523,58.015625 C42.0959167,57.0677083 45.0490417,56.59375 48.382375,56.59375 C51.694875,56.59375 54.632375,57.0677083 57.194875,58.015625 C59.757375,58.9635417 61.9188333,60.1510417 63.67925,61.578125 C65.4396667,63.0052083 66.7782083,64.484375 67.694875,66.015625 C68.6115417,67.546875 69.069875,68.8958333 69.069875,70.0625 C69.069875,70.3541667 68.99175,70.5572917 68.8355,70.671875 C68.67925,70.7864583 68.413625,70.84375 68.038625,70.84375 L28.694875,70.84375 Z M48.382375,48.25 C50.7365417,48.25 52.8875833,47.6145833 54.8355,46.34375 C56.7834167,45.0729167 58.3407083,43.3802083 59.507375,41.265625 C60.6740417,39.1510417 61.257375,36.8125 61.257375,34.25 C61.257375,31.75 60.67925,29.46875 59.523,27.40625 C58.36675,25.34375 56.8094583,23.703125 54.851125,22.484375 C52.8927917,21.265625 50.7365417,20.65625 48.382375,20.65625 C46.0282083,20.65625 43.8771667,21.2708333 41.92925,22.5 C39.9813333,23.7291667 38.4240417,25.375 37.257375,27.4375 C36.0907083,29.5 35.5177917,31.7916667 35.538625,34.3125 C35.538625,36.875 36.11675,39.2083333 37.273,41.3125 C38.42925,43.4166667 39.9813333,45.0989583 41.92925,46.359375 C43.8771667,47.6197917 46.0282083,48.25 48.382375,48.25 Z M48.382375,43.4375 C46.9865417,43.4375 45.694875,43.0364583 44.507375,42.234375 C43.319875,41.4322917 42.3719583,40.3385417 41.663625,38.953125 C40.9552917,37.5677083 40.601125,36.0208333 40.601125,34.3125 C40.601125,32.6458333 40.9500833,31.1458333 41.648,29.8125 C42.3459167,28.4791667 43.288625,27.421875 44.476125,26.640625 C45.663625,25.859375 46.9657083,25.46875 48.382375,25.46875 C49.819875,25.46875 51.1219583,25.8541667 52.288625,26.625 C53.4552917,27.3958333 54.3875833,28.4427083 55.0855,29.765625 C55.7834167,31.0885417 56.132375,32.5833333 56.132375,34.25 C56.132375,35.9791667 55.7782083,37.5364583 55.069875,38.921875 C54.3615417,40.3072917 53.4240417,41.40625 52.257375,42.21875 C51.0907083,43.03125 49.7990417,43.4375 48.382375,43.4375 Z" fill="#FFFFFF" fill-rule="nonzero"></path>
            </g>
        </g>
    </g>
</svg>